<?xml version="1.0" standalone="no"?>
<!DOCTYPE svg PUBLIC "-//W3C//DTD SVG 1.1//EN" "http://www.w3.org/Graphics/SVG/1.1/DTD/svg11.dtd" >
<svg>
<metadata>
Created by FontForge 20090914 at Tue Mar 22 17:18:42 2011
 By www-data
Copyright 1992-1997 Adobe Systems Incorporated.  All Rights Reserved.
</metadata>
<defs>
<font id="Myriad-BdWeb" horiz-adv-x="600" >
  <font-face 
    font-family="Myriad Web"
    font-weight="700"
    font-stretch="normal"
    units-per-em="2000"
    panose-1="2 11 8 3 3 4 3 2 2 4"
    ascent="1600"
    descent="-400"
    x-height="978"
    cap-height="1348"
    bbox="-96 -500 2586 1766"
    underline-thickness="100"
    underline-position="-150"
    unicode-range="U+0020-U+FB02"
  />
<missing-glyph horiz-adv-x="2000" 
d="M250 0v1500h1500v-1500h-1500zM375 125h1250v1250h-1250v-1250z" />
    <glyph glyph-name=".notdef" horiz-adv-x="2000" 
d="M250 0v1500h1500v-1500h-1500zM375 125h1250v1250h-1250v-1250z" />
    <glyph glyph-name=".null" horiz-adv-x="0" 
 />
    <glyph glyph-name="nonmarkingreturn" horiz-adv-x="414" 
 />
    <glyph glyph-name="glyph3" unicode=" " horiz-adv-x="414" 
 />
    <glyph glyph-name="exclam" unicode="!" horiz-adv-x="542" 
d="M386 442h-230l-44 906h318zM452 162q0 -81 -50.5 -132.5t-131.5 -51.5q-80 0 -131 52t-51 132q0 81 51 132.5t131 51.5t131 -51.5t51 -132.5z" />
    <glyph glyph-name="quotedbl" unicode="&#x22;" horiz-adv-x="810" 
d="M72 1386h276l-48 -544h-182zM462 1386h276l-46 -544h-182z" />
    <glyph glyph-name="numbersign" unicode="#" horiz-adv-x="1130" 
d="M374 0h-182l52 354h-166v188h198l32 224h-170v188h200l50 346h180l-50 -346h188l52 346h180l-50 -346h162v-188h-192l-32 -224h166v-188h-198l-50 -354h-184l52 354h-186zM458 542h186l32 224h-186z" />
    <glyph glyph-name="dollar" unicode="$" horiz-adv-x="1140" 
d="M664 -176h-200v190q-211 11 -354 88l62 238q171 -92 346 -92q91 0 144.5 33.5t53.5 90.5q0 56 -50.5 94.5t-169.5 75.5q-197 61 -285.5 150t-88.5 218q0 135 91.5 232t258.5 128v188h200v-176q173 -7 300 -66l-62 -230q-144 72 -300 72q-85 0 -129.5 -30.5t-44.5 -81.5
q0 -47 56.5 -85t191.5 -85q186 -64 266 -150.5t80 -227.5q0 -137 -95.5 -238t-270.5 -132v-204z" />
    <glyph glyph-name="percent" unicode="%" horiz-adv-x="1812" 
d="M56 912q0 179 103 294.5t271 115.5q166 0 264 -106t98 -280q0 -195 -108.5 -305.5t-263.5 -110.5q-157 0 -260.5 108t-103.5 284zM562 922q0 104 -33 167t-101 63q-65 0 -101.5 -62.5t-36.5 -169.5q0 -102 36 -166t102 -64q134 0 134 232zM610 -22h-166l752 1342h166z
M1018 374q0 179 104 293.5t270 114.5t264 -105.5t98 -280.5q0 -194 -109 -305t-263 -111q-157 0 -260.5 108t-103.5 286zM1524 382q0 104 -33 167t-101 63q-65 0 -101.5 -62.5t-36.5 -169.5q0 -105 37 -167.5t101 -62.5q134 0 134 232z" />
    <glyph glyph-name="ampersand" unicode="&#x26;" horiz-adv-x="1390" 
d="M1378 0h-360q-45 42 -92 98q-156 -120 -380 -120q-226 0 -354 109.5t-128 272.5q0 254 262 388v8q-104 117 -104 256q0 146 113 252t301 106q164 0 269 -87.5t105 -228.5q0 -214 -270 -346l-2 -6l228 -250q86 134 122 332h276q-60 -334 -230 -516zM598 850
q81 53 115.5 97t34.5 99q0 54 -33 93t-87 39q-57 0 -91.5 -39.5t-34.5 -96.5q0 -94 96 -192zM468 600q-110 -79 -110 -188q0 -90 63.5 -150t166.5 -60q116 0 190 68q-98 95 -310 330z" />
    <glyph glyph-name="quotesingle" unicode="'" horiz-adv-x="418" 
d="M72 1386h274l-46 -544h-182z" />
    <glyph glyph-name="parenleft" unicode="(" horiz-adv-x="642" 
d="M354 1382h214q-200 -332 -200 -808q0 -465 200 -806h-214q-228 339 -228 806q0 469 228 808z" />
    <glyph glyph-name="parenright" unicode=")" horiz-adv-x="642" 
d="M288 -232h-214q200 342 200 808q0 465 -200 806h214q228 -335 228 -806q0 -466 -228 -808z" />
    <glyph glyph-name="asterisk" unicode="*" horiz-adv-x="924" 
d="M578 1370l176 -100l-216 -258v-4l324 64v-204l-326 56v-6l218 -248l-178 -104l-116 310h-4l-114 -310l-174 104l216 250l-2 4l-318 -56v204l316 -64v4l-212 258l178 100l112 -310h4z" />
    <glyph glyph-name="plus" unicode="+" horiz-adv-x="1192" 
d="M498 1064h198v-436h416v-188h-416v-440h-198v440h-416v188h416v436z" />
    <glyph glyph-name="comma" unicode="," horiz-adv-x="526" 
d="M208 -218l-208 -18q100 284 148 572l314 20q-106 -329 -254 -574z" />
    <glyph glyph-name="glyph16" unicode="-" horiz-adv-x="658" 
d="M60 624h538v-204h-538v204z" />
    <glyph glyph-name="period" unicode="." horiz-adv-x="526" 
d="M466 164q0 -82 -51.5 -134t-132.5 -52q-80 0 -131 52.5t-51 133.5t52 133.5t132 52.5q81 0 131.5 -52t50.5 -134z" />
    <glyph glyph-name="slash" unicode="/" horiz-adv-x="674" 
d="M246 -80h-204l422 1450h206z" />
    <glyph glyph-name="zero" unicode="0" horiz-adv-x="1140" 
d="M1074 654q0 -317 -132.5 -496.5t-373.5 -179.5q-238 0 -370 180t-132 488q0 299 130 487.5t378 188.5q239 0 369.5 -180t130.5 -488zM374 650q0 -216 50.5 -330t143.5 -114q94 0 144 113t50 331q0 440 -192 440q-93 0 -144.5 -113.5t-51.5 -326.5z" />
    <glyph glyph-name="one" unicode="1" horiz-adv-x="1140" 
d="M484 0v1026h-4l-250 -118l-52 232l350 160h254v-1300h-298z" />
    <glyph glyph-name="two" unicode="2" horiz-adv-x="1140" 
d="M1036 0h-946v184q438 382 524 495t86 205q0 89 -56.5 139.5t-161.5 50.5q-142 0 -288 -112l-90 220q188 140 440 140q216 0 341 -112.5t125 -299.5q0 -132 -81.5 -270.5t-394.5 -383.5v-4h502v-252z" />
    <glyph glyph-name="three" unicode="3" horiz-adv-x="1140" 
d="M80 74l64 230q165 -82 316 -82q114 0 178 46.5t64 123.5q0 85 -74.5 134.5t-189.5 49.5h-136v222h130q97 0 164.5 39.5t67.5 108.5q0 61 -51.5 97.5t-144.5 36.5q-145 0 -284 -82l-66 222q172 102 418 102q202 0 322 -92t120 -234q0 -217 -242 -302v-4
q131 -23 209.5 -109.5t78.5 -204.5q0 -176 -148 -287t-394 -111q-244 0 -402 96z" />
    <glyph glyph-name="four" unicode="4" horiz-adv-x="1140" 
d="M934 0h-294v312h-590v198l498 790h386v-760h158v-228h-158v-312zM340 540h300v290q0 77 8 246h-6q-104 -213 -124 -246z" />
    <glyph glyph-name="five" unicode="5" horiz-adv-x="1140" 
d="M978 1300v-252h-522l-28 -194q59 4 90 4q233 0 374.5 -107.5t141.5 -316.5q0 -190 -155.5 -323t-414.5 -133q-218 0 -376 76l58 232q141 -68 304 -68q113 0 189.5 52.5t76.5 143.5q0 216 -376 216q-75 0 -184 -12l86 682h736z" />
    <glyph glyph-name="six" unicode="6" horiz-adv-x="1140" 
d="M938 1318v-236q-95 0 -158 -5t-139.5 -30.5t-130 -68t-86 -95t-46.5 -113.5h6q107 104 286 104q178 0 296 -117t118 -309q0 -198 -140.5 -334t-351.5 -136q-247 0 -388.5 158.5t-141.5 411.5q0 166 53.5 308.5t146.5 238t211.5 148.5t264.5 69q55 6 200 6zM368 474
q0 -109 56.5 -188.5t163.5 -79.5q81 0 131.5 62.5t50.5 161.5q0 100 -54 162t-148 62q-85 0 -142.5 -57t-57.5 -123z" />
    <glyph glyph-name="seven" unicode="7" horiz-adv-x="1140" 
d="M100 1300h944v-192l-550 -1108h-332l552 1044v4h-614v252z" />
    <glyph glyph-name="eight" unicode="8" horiz-adv-x="1140" 
d="M304 670q-192 98 -192 284q0 164 132.5 266t333.5 102q210 0 327 -97.5t117 -236.5q0 -190 -192 -286v-6q115 -42 179.5 -126.5t64.5 -195.5q0 -176 -140 -286t-372 -110q-230 0 -362 105.5t-132 256.5q0 223 236 324v6zM598 790q61 18 98.5 63.5t37.5 100.5
q0 69 -43 114.5t-119 45.5t-120 -41.5t-44 -106.5q0 -119 190 -176zM386 372q0 -72 53 -126t135 -54q83 0 134.5 45t51.5 115q0 55 -26 98t-92 76.5t-94 33.5q-16 0 -62 -23t-73 -66.5t-27 -98.5z" />
    <glyph glyph-name="nine" unicode="9" horiz-adv-x="1140" 
d="M184 -18v238q28 -3 58 -3q428 0 512 323l-4 2q-93 -96 -272 -96q-178 0 -297 113.5t-119 294.5q0 195 143.5 331.5t358.5 136.5q237 0 371.5 -155t134.5 -407q0 -184 -51.5 -326.5t-143 -237t-213.5 -145t-270 -64.5q-49 -5 -208 -5zM754 822q0 123 -51.5 198.5
t-146.5 75.5q-81 0 -133.5 -63t-52.5 -161q0 -90 51.5 -148t140.5 -58q61 0 106 23.5t65.5 53.5t20.5 79z" />
    <glyph glyph-name="colon" unicode=":" horiz-adv-x="526" 
d="M464 806q0 -80 -50 -132t-132 -52q-80 0 -131 52t-51 132q0 81 50.5 133.5t131.5 52.5t131.5 -52t50.5 -134zM462 162q0 -81 -50.5 -132.5t-131.5 -51.5q-80 0 -131 52t-51 132q0 81 51 133.5t131 52.5q81 0 131.5 -52t50.5 -134z" />
    <glyph glyph-name="semicolon" unicode=";" horiz-adv-x="526" 
d="M476 806q0 -80 -50 -132t-132 -52q-80 0 -131 52t-51 132q0 81 51 133.5t131 52.5q81 0 131.5 -52t50.5 -134zM208 -220l-206 -18q100 284 148 572l312 20q-106 -329 -254 -574z" />
    <glyph glyph-name="less" unicode="&#x3c;" horiz-adv-x="1192" 
d="M114 444v176l962 444v-214l-730 -316v-4l730 -316v-214z" />
    <glyph glyph-name="equal" unicode="=" horiz-adv-x="1192" 
d="M1112 650h-1032v188h1032v-188zM1112 232h-1032v188h1032v-188z" />
    <glyph glyph-name="greater" unicode="&#x3e;" horiz-adv-x="1192" 
d="M1078 624v-184l-962 -440v212l740 318v4l-740 318v212z" />
    <glyph glyph-name="question" unicode="?" horiz-adv-x="916" 
d="M558 440h-270q-2 61 -2 69q0 159 118 293q77 88 98.5 131t21.5 77q0 118 -146 118q-116 0 -208 -62l-70 220q149 84 346 84q183 0 286.5 -86.5t103.5 -225.5q0 -70 -36.5 -147.5t-137.5 -186.5q-104 -109 -104 -250v-34zM598 162q0 -81 -50.5 -132.5t-131.5 -51.5
q-80 0 -131 52t-51 132q0 81 51 132.5t131 51.5t131 -51.5t51 -132.5z" />
    <glyph glyph-name="at" unicode="@" horiz-adv-x="1574" 
d="M1080 168l36 -120q-159 -70 -372 -70q-268 0 -453 177.5t-185 456.5q0 206 98 382.5t272.5 276t389.5 99.5q268 0 444 -165.5t176 -420.5q0 -209 -110.5 -338.5t-277.5 -129.5q-154 0 -174 152h-4q-100 -152 -264 -152q-102 0 -166 72t-64 192q0 190 132 326t344 136
q148 0 242 -50l-58 -371q-8 -48 -8 -81q0 -88 63 -88q74 0 132.5 90t58.5 240q0 206 -132 334t-356 128q-244 0 -412 -171t-168 -441q0 -246 144.5 -386t377.5 -140q167 0 294 62zM908 690l26 182q-32 8 -62 8q-99 0 -169.5 -81t-70.5 -193q0 -126 102 -126q57 0 109.5 61.5
t64.5 148.5z" />
    <glyph glyph-name="A" unicode="A" horiz-adv-x="1358" 
d="M864 352h-404l-100 -352h-322l426 1348h408l438 -1348h-336zM506 580h310q-122 395 -158 542h-4l-64 -256z" />
    <glyph glyph-name="B" unicode="B" horiz-adv-x="1236" 
d="M134 6v1324q163 30 404 30q310 0 442 -95t132 -247q0 -95 -57.5 -170.5t-166.5 -115.5v-4q128 -34 200 -122.5t72 -209.5q0 -177 -148 -293.5t-540 -116.5q-196 0 -338 20zM440 1126v-310h104q123 0 189.5 44t66.5 122q0 154 -224 154q-93 0 -136 -10zM440 596v-376
q25 -6 124 -6q127 0 198.5 50t71.5 144q0 92 -74 140t-210 48h-110z" />
    <glyph glyph-name="C" unicode="C" horiz-adv-x="1238" 
d="M1116 280l48 -240q-138 -62 -362 -62q-341 0 -535.5 185.5t-194.5 492.5q0 324 212 519t546 195q225 0 350 -62l-64 -244q-125 54 -272 54q-203 0 -324.5 -118t-121.5 -326q0 -203 119.5 -321.5t328.5 -118.5q151 0 270 46z" />
    <glyph glyph-name="D" unicode="D" horiz-adv-x="1440" 
d="M134 6v1324q200 30 428 30q431 0 618.5 -180.5t187.5 -471.5q0 -344 -213.5 -533t-658.5 -189q-206 0 -362 20zM444 1110v-878q26 -6 112 -6q231 0 357.5 121.5t126.5 348.5q0 208 -115.5 317t-332.5 109q-91 0 -148 -12z" />
    <glyph glyph-name="E" unicode="E" horiz-adv-x="1100" 
d="M962 818v-250h-518v-316h578v-252h-888v1348h860v-252h-550v-278h518z" />
    <glyph glyph-name="F" unicode="F" horiz-adv-x="1086" 
d="M134 0v1348h852v-252h-542v-306h506v-250h-506v-540h-310z" />
    <glyph glyph-name="G" unicode="G" horiz-adv-x="1412" 
d="M1304 774v-710q-245 -78 -470 -78q-380 0 -571 187.5t-191 484.5q0 321 218.5 512.5t575.5 191.5q244 0 392 -68l-66 -244q-137 60 -332 60q-211 0 -336.5 -115.5t-125.5 -318.5q0 -201 122.5 -321.5t323.5 -120.5q114 0 160 20v280h-218v240h518z" />
    <glyph glyph-name="H" unicode="H" horiz-adv-x="1418" 
d="M134 1348h310v-518h530v518h310v-1348h-310v562h-530v-562h-310v1348z" />
    <glyph glyph-name="I" unicode="I" horiz-adv-x="578" 
d="M134 1348h310v-1348h-310v1348z" />
    <glyph glyph-name="J" unicode="J" horiz-adv-x="848" 
d="M414 508v840h310v-846q0 -265 -120.5 -394.5t-371.5 -129.5q-131 0 -234 34l36 246q88 -24 164 -24q117 0 166.5 66.5t49.5 207.5z" />
    <glyph glyph-name="K" unicode="K" horiz-adv-x="1264" 
d="M134 0v1348h306v-594l112 161l308 433h384l-462 -572l488 -776h-362l-348 584l-120 -144v-440h-306z" />
    <glyph glyph-name="L" unicode="L" horiz-adv-x="1052" 
d="M134 0v1348h310v-1088h558v-260h-868z" />
    <glyph glyph-name="M" unicode="M" horiz-adv-x="1742" 
d="M1330 0q-32 802 -32 1088h-6q-49 -215 -328 -1066h-242q-167 587 -200 720t-76 346h-4q-13 -404 -22 -582l-26 -506h-288l86 1348h420q155 -516 186.5 -638.5t63.5 -291.5h8q74 313 126 469l154 461h412l72 -1348h-304z" />
    <glyph glyph-name="N" unicode="N" horiz-adv-x="1422" 
d="M420 0h-286v1348h368l325 -551q93 -161 195 -409h4q-24 212 -24 556v404h286v-1348h-328q-343 595 -409 717.5t-137 286.5h-8q14 -255 14 -586v-418z" />
    <glyph glyph-name="O" unicode="O" horiz-adv-x="1490" 
d="M1418 686q0 -321 -188.5 -514.5t-495.5 -193.5q-298 0 -480 192.5t-182 493.5q0 308 190 507t490 199q302 0 484 -192t182 -492zM398 672q0 -198 95 -324t249 -126q158 0 252 125t94 329q0 196 -94.5 323t-249.5 127q-156 0 -251 -127.5t-95 -326.5z" />
    <glyph glyph-name="P" unicode="P" horiz-adv-x="1190" 
d="M134 0v1332q191 28 428 28q296 0 430 -120t134 -304q0 -225 -153.5 -344.5t-422.5 -119.5q-53 0 -110 8v-480h-306zM440 1116v-398q33 -8 108 -8q126 0 199 58t73 160q0 94 -65 146t-183 52q-94 0 -132 -10z" />
    <glyph glyph-name="Q" unicode="Q" horiz-adv-x="1490" 
d="M1418 8l-86 -240q-247 68 -556 190q-42 17 -96 20q-264 19 -436 201.5t-172 480.5q0 311 188 510.5t496 199.5q299 0 480.5 -192.5t181.5 -489.5q0 -206 -89.5 -367.5t-242.5 -230.5v-8q122 -35 332 -74zM400 670q0 -198 95 -323t249 -125q157 0 251.5 125t94.5 329
q0 196 -94 323t-248 127q-157 0 -252.5 -128t-95.5 -328z" />
    <glyph glyph-name="R" unicode="R" horiz-adv-x="1216" 
d="M134 0v1330q170 30 418 30q306 0 440 -101t134 -289q0 -112 -67.5 -202.5t-174.5 -127.5v-8q126 -47 182 -248q103 -362 112 -384h-316q-40 75 -96 314q-28 120 -76 168t-154 48h-96v-530h-306zM440 1122v-370h128q116 0 183 52.5t67 141.5t-60.5 137.5t-171.5 48.5
q-109 0 -146 -10z" />
    <glyph glyph-name="S" unicode="S" horiz-adv-x="1114" 
d="M84 64l64 254q173 -88 352 -88q103 0 160.5 39t57.5 107q0 61 -52 102t-180 84q-386 128 -386 402q0 177 142 291.5t378 114.5q206 0 360 -70l-70 -246q-141 66 -294 66q-94 0 -147 -36t-53 -94q0 -53 44.5 -90.5t213.5 -97.5q187 -66 273.5 -163.5t86.5 -242.5
q0 -186 -146 -302t-408 -116q-224 0 -396 86z" />
    <glyph glyph-name="T" unicode="T" horiz-adv-x="1132" 
d="M408 0v1090h-378v258h1072v-258h-384v-1090h-310z" />
    <glyph glyph-name="U" unicode="U" horiz-adv-x="1406" 
d="M134 1348h310v-764q0 -176 66 -269t190 -93q262 0 262 362v764h310v-748q0 -305 -149 -463.5t-433 -158.5q-556 0 -556 626v744z" />
    <glyph glyph-name="V" unicode="V" horiz-adv-x="1316" 
d="M832 0h-364l-448 1348h340q281 -934 298 -1052h4q48 216 133 487l179 565h328z" />
    <glyph glyph-name="W" unicode="W" horiz-adv-x="1824" 
d="M702 0h-342l-330 1348h332q140 -718 190 -1028h4q26 194 206 1028h338q159 -818 182 -1020h4q16 153 196 1020h316l-360 -1348h-336q-134 663 -150.5 755.5t-33.5 252.5h-4q-36 -226 -78 -412z" />
    <glyph glyph-name="X" unicode="X" horiz-adv-x="1274" 
d="M1236 0h-362q-243 471 -250 486h-4q-22 -58 -75 -168l-151 -318h-358l406 682l-392 666h360q180 -357 228 -470h4q43 120 216 470h358l-396 -656z" />
    <glyph glyph-name="Y" unicode="Y" horiz-adv-x="1252" 
d="M774 0h-310v556l-440 792h356q245 -557 254 -580q46 124 250 580h352l-462 -780v-568z" />
    <glyph glyph-name="Z" unicode="Z" horiz-adv-x="1198" 
d="M50 0v166l668 920v6h-608v256h1014v-174l-654 -912v-6h666v-256h-1086z" />
    <glyph glyph-name="bracketleft" unicode="[" horiz-adv-x="642" 
d="M554 -224h-414v1594h414v-168h-192v-1258h192v-168z" />
    <glyph glyph-name="backslash" unicode="\" horiz-adv-x="698" 
d="M658 -80h-206l-422 1450h206z" />
    <glyph glyph-name="bracketright" unicode="]" horiz-adv-x="642" 
d="M88 1370h414v-1594h-414v168h192v1258h-192v168z" />
    <glyph glyph-name="asciicircum" unicode="^" horiz-adv-x="1192" 
d="M1108 354h-220l-292 712l-296 -712h-216l418 946h188z" />
    <glyph glyph-name="underscore" unicode="_" horiz-adv-x="1000" 
d="M0 -150h1000v-100h-1000v100z" />
    <glyph glyph-name="grave" unicode="`" 
d="M4 1402h286l176 -306h-212z" />
    <glyph glyph-name="a" unicode="a" horiz-adv-x="1082" 
d="M958 578v-340q0 -148 16 -238h-278l-18 98h-8q-101 -120 -286 -120q-144 0 -234 87.5t-90 212.5q0 182 152.5 279t437.5 97v12q0 122 -184 122q-150 0 -278 -74l-58 196q163 90 390 90q216 0 327 -109t111 -313zM660 362v100q-294 0 -294 -152q0 -55 33 -85.5t91 -30.5
q63 0 116.5 44t53.5 124z" />
    <glyph glyph-name="b" unicode="b" horiz-adv-x="1230" 
d="M124 294v1130h310v-566h4q102 142 308 142q183 0 300.5 -136.5t117.5 -357.5q0 -151 -59 -272.5t-167.5 -188.5t-235.5 -67q-208 0 -306 160h-4l-14 -138h-262q8 132 8 294zM434 552v-128q0 -99 61 -151.5t135 -52.5q102 0 161 73t59 201q0 122 -58.5 196t-161.5 74
q-80 0 -138 -59t-58 -153z" />
    <glyph glyph-name="c" unicode="c" horiz-adv-x="932" 
d="M844 252l38 -226q-113 -48 -286 -48q-242 0 -386 136.5t-144 365.5t155 374.5t419 145.5q135 0 242 -40l-50 -228q-76 32 -178 32q-121 0 -195.5 -76t-74.5 -196q0 -125 77.5 -198.5t198.5 -73.5q99 0 184 32z" />
    <glyph glyph-name="d" unicode="d" horiz-adv-x="1226" 
d="M792 1424h310v-1132q0 -160 8 -292h-276l-12 148h-4q-102 -170 -320 -170q-181 0 -305.5 140.5t-124.5 361.5q0 235 131.5 377.5t320.5 142.5q188 0 268 -112h4v536zM792 444v114q0 90 -53 148t-137 58q-102 0 -161 -75.5t-59 -198.5q0 -122 59 -194t159 -72
q72 0 132 52.5t60 167.5z" />
    <glyph glyph-name="e" unicode="e" horiz-adv-x="1080" 
d="M1010 390h-650q8 -87 87.5 -135.5t198.5 -48.5q152 0 280 42l40 -206q-152 -64 -364 -64q-251 0 -393.5 134t-142.5 366q0 213 137 367.5t369 154.5q214 0 332 -138t118 -354q0 -71 -12 -118zM358 602h376q0 69 -40.5 131.5t-137.5 62.5q-80 0 -132.5 -53.5t-65.5 -140.5
z" />
    <glyph glyph-name="f" unicode="f" horiz-adv-x="696" 
d="M468 0h-310v750h-128v228h128v36q0 123 49 227t144.5 154.5t206.5 50.5q80 0 162 -20l-10 -238q-45 14 -100 14q-69 0 -106.5 -46.5t-37.5 -127.5v-50h198v-228h-196v-750z" />
    <glyph glyph-name="g" unicode="g" horiz-adv-x="1202" 
d="M1076 688v-542q0 -286 -133 -426t-425 -140q-219 0 -364 78l62 234q137 -76 294 -76q123 0 192.5 66.5t69.5 191.5v64h-4q-97 -130 -274 -130q-185 0 -305.5 133t-120.5 343q0 226 132 371t324 145q190 0 278 -140h4l10 118h268q-8 -116 -8 -290zM766 444v130
q0 85 -49 139.5t-129 54.5q-89 0 -147.5 -75t-58.5 -201q0 -111 55 -184.5t151 -73.5q64 0 121 46.5t57 163.5z" />
    <glyph glyph-name="h" unicode="h" horiz-adv-x="1200" 
d="M126 0v1424h310v-566h4q45 62 121.5 102t162.5 40q163 0 258.5 -113t95.5 -321v-566h-310v530q0 220 -164 220q-68 0 -118 -46.5t-50 -127.5v-576h-310z" />
    <glyph glyph-name="i" unicode="i" horiz-adv-x="560" 
d="M436 0h-310v978h310v-978zM454 1268q0 -70 -48 -116t-126 -46t-126 46t-48 116t48.5 116t125.5 46t125.5 -46t48.5 -116z" />
    <glyph glyph-name="j" unicode="j" horiz-adv-x="598" 
d="M-50 -432l-30 240q90 6 148.5 37.5t79 106.5t20.5 248v778h310v-854q0 -314 -141.5 -435t-386.5 -121zM496 1268q0 -69 -47.5 -115.5t-126.5 -46.5q-78 0 -126 46t-48 116t48.5 116t125.5 46q78 0 126 -45.5t48 -116.5z" />
    <glyph glyph-name="k" unicode="k" horiz-adv-x="1116" 
d="M434 1424v-858h4q26 52 280 412h374l-364 -396l418 -582h-384l-248 402l-80 -98v-304h-310v1424h310z" />
    <glyph glyph-name="l" unicode="l" horiz-adv-x="560" 
d="M126 0v1424h310v-1424h-310z" />
    <glyph glyph-name="m" unicode="m" horiz-adv-x="1762" 
d="M126 0v664q0 145 -8 314h260l14 -136h6q104 158 302 158q95 0 168 -45t106 -127h4q123 172 322 172q155 0 246.5 -112t91.5 -318v-570h-300v526q0 226 -150 226q-67 0 -111.5 -51.5t-44.5 -134.5v-566h-300v540q0 102 -38 157t-108 55q-65 0 -112.5 -52t-47.5 -136v-564
h-300z" />
    <glyph glyph-name="n" unicode="n" horiz-adv-x="1200" 
d="M126 0v664q0 145 -8 314h268l14 -138h8q109 160 310 160q165 0 262.5 -111.5t97.5 -314.5v-574h-310v534q0 218 -162 218q-66 0 -118 -50t-52 -142v-560h-310z" />
    <glyph glyph-name="o" unicode="o" horiz-adv-x="1186" 
d="M1120 500q0 -240 -151 -381t-379 -141q-230 0 -377 138.5t-147 365.5q0 233 148 375.5t392 142.5q228 0 371 -140t143 -360zM384 488q0 -130 56.5 -210t151.5 -80q93 0 149.5 79t56.5 213q0 128 -54 209t-150 81q-99 0 -154.5 -81.5t-55.5 -210.5z" />
    <glyph glyph-name="p" unicode="p" horiz-adv-x="1230" 
d="M124 -396v1044q0 150 -8 330h270l14 -140q121 162 344 162q173 0 295.5 -137.5t122.5 -358.5q0 -242 -134 -384t-326 -142q-85 0 -156.5 30.5t-107.5 83.5h-4v-488h-310zM434 546v-120q0 -63 21.5 -106.5t68.5 -74.5t104 -31q101 0 160.5 74t59.5 200q0 123 -57.5 197.5
t-156.5 74.5q-81 0 -140.5 -61t-59.5 -153z" />
    <glyph glyph-name="q" unicode="q" horiz-adv-x="1226" 
d="M792 -396v524h-4q-99 -150 -302 -150q-173 0 -295.5 138.5t-122.5 359.5q0 157 59 276t163.5 183.5t221.5 64.5q196 0 286 -138l8 116h302q-6 -239 -6 -292v-1082h-310zM792 430v132q0 92 -57.5 146t-132.5 54q-102 0 -161 -75t-59 -199q0 -122 58.5 -195t157.5 -73
q82 0 138 57.5t56 152.5z" />
    <glyph glyph-name="r" unicode="r" horiz-adv-x="780" 
d="M126 0v652q0 220 -8 326h266l10 -186h8q36 101 111.5 154.5t160.5 53.5q47 0 66 -6v-290q-39 10 -84 10q-86 0 -153 -48.5t-67 -171.5v-494h-310z" />
    <glyph glyph-name="s" unicode="s" horiz-adv-x="894" 
d="M68 48l56 220q54 -31 132.5 -52.5t139.5 -21.5q134 0 134 80q0 40 -32.5 62t-115.5 48q-288 89 -288 292q0 141 112.5 232.5t295.5 91.5q160 0 284 -58l-54 -212q-116 56 -220 56q-120 0 -120 -78q0 -35 36.5 -59t127.5 -53q140 -44 206 -116.5t66 -183.5
q0 -145 -114 -231.5t-318 -86.5q-188 0 -328 70z" />
    <glyph glyph-name="t" unicode="t" horiz-adv-x="746" 
d="M166 1162l302 82v-266h222v-228h-222v-344q0 -97 28.5 -136.5t93.5 -39.5q60 0 94 10l2 -234q-73 -28 -202 -28q-140 0 -229 83.5t-89 294.5v394h-132v228h132v184z" />
    <glyph glyph-name="u" unicode="u" horiz-adv-x="1198" 
d="M1072 978v-662q0 -157 8 -316h-268l-14 142h-8q-104 -164 -314 -164q-168 0 -261 109.5t-93 316.5v574h310v-522q0 -230 160 -230q67 0 118.5 49t51.5 125v578h310z" />
    <glyph glyph-name="v" unicode="v" horiz-adv-x="1092" 
d="M20 978h336q193 -632 196 -690h8q18 100 52 221l134 469h328l-376 -978h-312z" />
    <glyph glyph-name="w" unicode="w" horiz-adv-x="1552" 
d="M24 978h314q116 -558 140 -722h4q16 102 54 247l124 475h246q155 -595 174 -722h4q15 154 144 722h302l-304 -978h-292q-105 383 -120.5 449t-39.5 199h-4q-23 -159 -59 -283l-105 -365h-292z" />
    <glyph glyph-name="x" unicode="x" horiz-adv-x="1068" 
d="M14 978h346q140 -220 184 -306h6q28 62 168 306h338l-334 -464l338 -514h-352q-147 249 -180 324h-6q-26 -58 -174 -324h-342l344 500z" />
    <glyph glyph-name="y" unicode="y" horiz-adv-x="1076" 
d="M14 978h344q189 -600 202 -662h6l172 662h332l-226 -619q-91 -250 -165 -396.5t-147.5 -225t-164.5 -124t-187 -55.5l-64 260q131 26 206.5 102t75.5 112q0 13 -16 52z" />
    <glyph glyph-name="z" unicode="z" horiz-adv-x="964" 
d="M44 0v176l357 425.5l121 132.5h-444v244h826v-184l-367 -440.5t-103 -105.5v-4h486v-244h-876z" />
    <glyph glyph-name="braceleft" unicode="{" horiz-adv-x="642" 
d="M64 498v152q69 2 111.5 32.5t42.5 107.5q0 66 -10 156q-12 108 -12 158q0 266 304 266h74v-170h-36q-124 0 -124 -142l10 -112q10 -100 10 -140q0 -105 -40 -158t-132 -72v-4q91 -17 131.5 -70.5t40.5 -159.5q0 -37 -10 -142q-10 -100 -10 -110q0 -144 124 -144h36v-170
h-74q-304 0 -304 272q0 48 12 156q10 90 10 154q0 133 -154 140z" />
    <glyph glyph-name="bar" unicode="|" horiz-adv-x="580" 
d="M184 1500h214v-2000h-214v2000z" />
    <glyph glyph-name="braceright" unicode="}" horiz-adv-x="642" 
d="M578 650l-2 -152q-154 -7 -154 -140q0 -28 14 -154q10 -90 10 -156q0 -272 -304 -272h-74v170h36q124 0 124 144q0 30 -12 110q-10 70 -10 142q0 106 40.5 159.5t131.5 70.5v4q-92 19 -132 72t-40 158q0 60 12 140q10 70 10 112q0 142 -124 142h-36v170h74
q304 0 304 -266q0 -50 -12 -158t-12 -156q0 -59 30.5 -97.5t125.5 -42.5z" />
    <glyph glyph-name="asciitilde" unicode="~" horiz-adv-x="1192" 
d="M274 382h-192q0 378 280 378q53 0 107.5 -15t172.5 -79q147 -80 194 -80q72 0 80 162h194q0 -119 -16.5 -184.5t-54 -111t-88 -65t-111.5 -19.5q-56 0 -115 18t-167 78q-147 82 -190 82q-81 0 -94 -164z" />
    <glyph glyph-name="Adieresis" unicode="&#xc4;" horiz-adv-x="1358" 
d="M864 352h-404l-100 -352h-322l426 1348h408l438 -1348h-336zM506 580h310q-122 395 -158 542h-4l-64 -256zM613 1592q0 -56 -38 -96t-94 -40q-60 0 -101 40t-41 96q0 58 41 98t101 40q55 0 93.5 -40t38.5 -98zM1027 1592q0 -57 -38.5 -96.5t-95.5 -39.5q-60 0 -99 39.5
t-39 96.5q0 59 39.5 98.5t98.5 39.5q57 0 95.5 -40t38.5 -98z" />
    <glyph glyph-name="Aring" unicode="&#xc5;" horiz-adv-x="1358" 
d="M866 352h-406l-98 -352h-324l426 1348q-58 45 -58 140q0 92 72.5 155t197.5 63q128 0 198 -58t70 -158t-72 -142l438 -1348h-336zM782 1496q0 46 -29 76t-79 30q-49 0 -76.5 -29t-27.5 -79q0 -45 28.5 -74.5t75.5 -29.5q50 0 79 28.5t29 77.5zM504 580h312
q-101 326 -160 542l-64 -242z" />
    <glyph glyph-name="Ccedilla" unicode="&#xc7;" horiz-adv-x="1238" 
d="M1114 280l54 -240q-130 -58 -362 -62l-38 -66q66 -9 106 -49.5t40 -96.5q0 -91 -68.5 -132.5t-175.5 -41.5q-98 0 -162 40l40 112q56 -32 108 -32q72 0 72 52q0 61 -158 72l80 154q-278 43 -428 221.5t-150 444.5q0 324 212 519t546 195q222 0 350 -62l-64 -244
q-128 54 -274 54q-201 0 -322.5 -118t-121.5 -326q0 -203 119.5 -321.5t326.5 -118.5q151 0 270 46z" />
    <glyph glyph-name="Eacute" unicode="&#xc9;" horiz-adv-x="1100" 
d="M962 818v-250h-518v-316h578v-252h-888v1348h860v-252h-550v-278h518zM598 1703h324l-248 -252h-248z" />
    <glyph glyph-name="Ntilde" unicode="&#xd1;" horiz-adv-x="1422" 
d="M420 0h-286v1348h368l325 -551q93 -161 195 -409h4q-24 212 -24 556v404h286v-1348h-328q-343 595 -409 717.5t-137 286.5h-8q14 -255 14 -586v-418zM566 1458h-142q0 254 156 254q56 0 132 -40q80 -40 90 -40q30 0 40.5 21.5t15.5 66.5h138q0 -151 -43.5 -199.5
t-116.5 -48.5q-64 0 -132 38q-68 36 -90 36q-42 0 -48 -88z" />
    <glyph glyph-name="Odieresis" unicode="&#xd6;" horiz-adv-x="1490" 
d="M1418 686q0 -321 -188.5 -514.5t-495.5 -193.5q-298 0 -480 192.5t-182 493.5q0 308 190 507t490 199q302 0 484 -192t182 -492zM398 672q0 -198 95 -324t249 -126q158 0 252 125t94 329q0 196 -94.5 323t-249.5 127q-156 0 -251 -127.5t-95 -326.5zM673 1592
q0 -56 -38 -96t-94 -40q-60 0 -101 40t-41 96q0 58 41 98t101 40q55 0 93.5 -40t38.5 -98zM1087 1592q0 -57 -38.5 -96.5t-95.5 -39.5q-60 0 -99 39.5t-39 96.5q0 59 39.5 98.5t98.5 39.5q57 0 95.5 -40t38.5 -98z" />
    <glyph glyph-name="Udieresis" unicode="&#xdc;" horiz-adv-x="1406" 
d="M134 1348h310v-764q0 -176 66 -269t190 -93q262 0 262 362v764h310v-748q0 -305 -149 -463.5t-433 -158.5q-556 0 -556 626v744zM645 1592q0 -56 -38 -96t-94 -40q-60 0 -101 40t-41 96q0 58 41 98t101 40q55 0 93.5 -40t38.5 -98zM1059 1592q0 -57 -38.5 -96.5
t-95.5 -39.5q-60 0 -99 39.5t-39 96.5q0 59 39.5 98.5t98.5 39.5q57 0 95.5 -40t38.5 -98z" />
    <glyph glyph-name="aacute" unicode="&#xe1;" horiz-adv-x="1082" 
d="M958 578v-340q0 -148 16 -238h-278l-18 98h-8q-101 -120 -286 -120q-144 0 -234 87.5t-90 212.5q0 182 152.5 279t437.5 97v12q0 122 -184 122q-150 0 -278 -74l-58 196q163 90 390 90q216 0 327 -109t111 -313zM660 362v100q-294 0 -294 -152q0 -55 33 -85.5t91 -30.5
q63 0 116.5 44t53.5 124zM574 1402h286l-250 -306h-212z" />
    <glyph glyph-name="agrave" unicode="&#xe0;" horiz-adv-x="1082" 
d="M958 578v-340q0 -148 16 -238h-278l-18 98h-8q-101 -120 -286 -120q-144 0 -234 87.5t-90 212.5q0 182 152.5 279t437.5 97v12q0 122 -184 122q-150 0 -278 -74l-58 196q163 90 390 90q216 0 327 -109t111 -313zM660 362v100q-294 0 -294 -152q0 -55 33 -85.5t91 -30.5
q63 0 116.5 44t53.5 124zM208 1402h286l176 -306h-212z" />
    <glyph glyph-name="acircumflex" unicode="&#xe2;" horiz-adv-x="1082" 
d="M958 578v-340q0 -148 16 -238h-278l-18 98h-8q-101 -120 -286 -120q-144 0 -234 87.5t-90 212.5q0 182 152.5 279t437.5 97v12q0 122 -184 122q-150 0 -278 -74l-58 196q163 90 390 90q216 0 327 -109t111 -313zM660 362v100q-294 0 -294 -152q0 -55 33 -85.5t91 -30.5
q63 0 116.5 44t53.5 124zM434 1402h198l202 -306h-198l-102 174l-106 -174h-196z" />
    <glyph glyph-name="adieresis" unicode="&#xe4;" horiz-adv-x="1082" 
d="M958 578v-340q0 -148 16 -238h-278l-18 98h-8q-101 -120 -286 -120q-144 0 -234 87.5t-90 212.5q0 182 152.5 279t437.5 97v12q0 122 -184 122q-150 0 -278 -74l-58 196q163 90 390 90q216 0 327 -109t111 -313zM660 362v100q-294 0 -294 -152q0 -55 33 -85.5t91 -30.5
q63 0 116.5 44t53.5 124zM469 1228q0 -57 -38.5 -97.5t-95.5 -40.5q-59 0 -99.5 41t-40.5 97q0 58 41 98t101 40q56 0 94 -39.5t38 -98.5zM885 1228q0 -57 -38.5 -97.5t-97.5 -40.5q-58 0 -98 40.5t-40 97.5q0 59 39.5 98.5t98.5 39.5q58 0 97 -39t39 -99z" />
    <glyph glyph-name="atilde" unicode="&#xe3;" horiz-adv-x="1082" 
d="M958 578v-340q0 -148 16 -238h-278l-18 98h-8q-101 -120 -286 -120q-144 0 -234 87.5t-90 212.5q0 182 152.5 279t437.5 97v12q0 122 -184 122q-150 0 -278 -74l-58 196q163 90 390 90q216 0 327 -109t111 -313zM660 362v100q-294 0 -294 -152q0 -55 33 -85.5t91 -30.5
q63 0 116.5 44t53.5 124zM377 1110h-138q0 254 154 254q45 0 134 -40q65 -38 88 -38q29 0 39.5 21.5t14.5 66.5h136q0 -133 -39 -190.5t-121 -57.5q-58 0 -142 44q-54 30 -78 30q-42 0 -48 -90z" />
    <glyph glyph-name="aring" unicode="&#xe5;" horiz-adv-x="1082" 
d="M958 578v-340q0 -148 16 -238h-278l-18 98h-8q-101 -120 -286 -120q-144 0 -234 87.5t-90 212.5q0 182 152.5 279t437.5 97v12q0 122 -184 122q-150 0 -278 -74l-58 196q163 90 390 90q216 0 327 -109t111 -313zM660 362v100q-294 0 -294 -152q0 -55 33 -85.5t91 -30.5
q63 0 116.5 44t53.5 124zM311 1272q0 89 63.5 145.5t170.5 56.5t168.5 -55.5t61.5 -146.5q0 -85 -63.5 -140.5t-166.5 -55.5q-105 0 -169.5 55.5t-64.5 140.5zM637 1274q0 42 -25.5 70t-66.5 28q-42 0 -67 -28.5t-25 -71.5q0 -38 25.5 -66t64.5 -28q42 0 68 27.5t26 68.5z
" />
    <glyph glyph-name="ccedilla" unicode="&#xe7;" horiz-adv-x="932" 
d="M844 252l42 -226q-102 -43 -252 -46l-38 -66q65 -9 105.5 -50t40.5 -96q0 -92 -69 -134t-177 -42q-94 0 -162 40l42 114q54 -34 108 -34q72 0 72 52q0 61 -158 72l78 154q-195 34 -302.5 165.5t-107.5 326.5q0 222 151 370t421 148q137 0 244 -40l-50 -230
q-72 34 -178 34q-122 0 -196 -75.5t-74 -196.5q0 -126 77.5 -200t198.5 -74q102 0 184 34z" />
    <glyph glyph-name="eacute" unicode="&#xe9;" horiz-adv-x="1080" 
d="M1010 390h-650q8 -87 87.5 -135.5t198.5 -48.5q152 0 280 42l40 -206q-152 -64 -364 -64q-251 0 -393.5 134t-142.5 366q0 213 137 367.5t369 154.5q214 0 332 -138t118 -354q0 -71 -12 -118zM358 602h376q0 69 -40.5 131.5t-137.5 62.5q-80 0 -132.5 -53.5t-65.5 -140.5
zM614 1402h286l-250 -306h-212z" />
    <glyph glyph-name="egrave" unicode="&#xe8;" horiz-adv-x="1080" 
d="M1010 390h-650q8 -87 87.5 -135.5t198.5 -48.5q152 0 280 42l40 -206q-152 -64 -364 -64q-251 0 -393.5 134t-142.5 366q0 213 137 367.5t369 154.5q214 0 332 -138t118 -354q0 -71 -12 -118zM358 602h376q0 69 -40.5 131.5t-137.5 62.5q-80 0 -132.5 -53.5t-65.5 -140.5
zM248 1402h286l176 -306h-212z" />
    <glyph glyph-name="ecircumflex" unicode="&#xea;" horiz-adv-x="1080" 
d="M1010 390h-650q8 -87 87.5 -135.5t198.5 -48.5q152 0 280 42l40 -206q-152 -64 -364 -64q-251 0 -393.5 134t-142.5 366q0 213 137 367.5t369 154.5q214 0 332 -138t118 -354q0 -71 -12 -118zM358 602h376q0 69 -40.5 131.5t-137.5 62.5q-80 0 -132.5 -53.5t-65.5 -140.5
zM464 1402h198l202 -306h-198l-102 174l-106 -174h-196z" />
    <glyph glyph-name="edieresis" unicode="&#xeb;" horiz-adv-x="1080" 
d="M1010 390h-650q8 -87 87.5 -135.5t198.5 -48.5q152 0 280 42l40 -206q-152 -64 -364 -64q-251 0 -393.5 134t-142.5 366q0 213 137 367.5t369 154.5q214 0 332 -138t118 -354q0 -71 -12 -118zM358 602h376q0 69 -40.5 131.5t-137.5 62.5q-80 0 -132.5 -53.5t-65.5 -140.5
zM502 1228q0 -57 -38.5 -97.5t-95.5 -40.5q-59 0 -99.5 41t-40.5 97q0 58 41 98t101 40q56 0 94 -39.5t38 -98.5zM918 1228q0 -57 -38.5 -97.5t-97.5 -40.5q-58 0 -98 40.5t-40 97.5q0 59 39.5 98.5t98.5 39.5q58 0 97 -39t39 -99z" />
    <glyph glyph-name="iacute" unicode="&#xed;" horiz-adv-x="560" 
d="M436 0h-310v978h310v-978zM328 1402h286l-250 -306h-212z" />
    <glyph glyph-name="igrave" unicode="&#xec;" horiz-adv-x="560" 
d="M436 0h-310v978h310v-978zM-60 1402h286l176 -306h-212z" />
    <glyph glyph-name="icircumflex" unicode="&#xee;" horiz-adv-x="560" 
d="M436 0h-310v978h310v-978zM184 1402h198l202 -306h-198l-102 174l-106 -174h-196z" />
    <glyph glyph-name="idieresis" unicode="&#xef;" horiz-adv-x="560" 
d="M436 0h-310v978h310v-978zM210 1228q0 -57 -38.5 -97.5t-95.5 -40.5q-59 0 -99.5 41t-40.5 97q0 58 41 98t101 40q56 0 94 -39.5t38 -98.5zM626 1228q0 -57 -38.5 -97.5t-97.5 -40.5q-58 0 -98 40.5t-40 97.5q0 59 39.5 98.5t98.5 39.5q58 0 97 -39t39 -99z" />
    <glyph glyph-name="ntilde" unicode="&#xf1;" horiz-adv-x="1200" 
d="M126 0v664q0 145 -8 314h268l14 -138h8q109 160 310 160q165 0 262.5 -111.5t97.5 -314.5v-574h-310v534q0 218 -162 218q-66 0 -118 -50t-52 -142v-560h-310zM459 1110h-138q0 254 154 254q45 0 134 -40q65 -38 88 -38q29 0 39.5 21.5t14.5 66.5h136q0 -133 -39 -190.5
t-121 -57.5q-58 0 -142 44q-54 30 -78 30q-42 0 -48 -90z" />
    <glyph glyph-name="oacute" unicode="&#xf3;" horiz-adv-x="1186" 
d="M1120 500q0 -240 -151 -381t-379 -141q-230 0 -377 138.5t-147 365.5q0 233 148 375.5t392 142.5q228 0 371 -140t143 -360zM384 488q0 -130 56.5 -210t151.5 -80q93 0 149.5 79t56.5 213q0 128 -54 209t-150 81q-99 0 -154.5 -81.5t-55.5 -210.5zM630 1402h286
l-250 -306h-212z" />
    <glyph glyph-name="ograve" unicode="&#xf2;" horiz-adv-x="1186" 
d="M1120 500q0 -240 -151 -381t-379 -141q-230 0 -377 138.5t-147 365.5q0 233 148 375.5t392 142.5q228 0 371 -140t143 -360zM384 488q0 -130 56.5 -210t151.5 -80q93 0 149.5 79t56.5 213q0 128 -54 209t-150 81q-99 0 -154.5 -81.5t-55.5 -210.5zM278 1402h286l176 -306
h-212z" />
    <glyph glyph-name="ocircumflex" unicode="&#xf4;" horiz-adv-x="1186" 
d="M1120 500q0 -240 -151 -381t-379 -141q-230 0 -377 138.5t-147 365.5q0 233 148 375.5t392 142.5q228 0 371 -140t143 -360zM384 488q0 -130 56.5 -210t151.5 -80q93 0 149.5 79t56.5 213q0 128 -54 209t-150 81q-99 0 -154.5 -81.5t-55.5 -210.5zM496 1402h198l202 -306
h-198l-102 174l-106 -174h-196z" />
    <glyph glyph-name="odieresis" unicode="&#xf6;" horiz-adv-x="1186" 
d="M1120 500q0 -240 -151 -381t-379 -141q-230 0 -377 138.5t-147 365.5q0 233 148 375.5t392 142.5q228 0 371 -140t143 -360zM384 488q0 -130 56.5 -210t151.5 -80q93 0 149.5 79t56.5 213q0 128 -54 209t-150 81q-99 0 -154.5 -81.5t-55.5 -210.5zM522 1228
q0 -57 -38.5 -97.5t-95.5 -40.5q-59 0 -99.5 41t-40.5 97q0 58 41 98t101 40q56 0 94 -39.5t38 -98.5zM938 1228q0 -57 -38.5 -97.5t-97.5 -40.5q-58 0 -98 40.5t-40 97.5q0 59 39.5 98.5t98.5 39.5q58 0 97 -39t39 -99z" />
    <glyph glyph-name="otilde" unicode="&#xf5;" horiz-adv-x="1186" 
d="M1120 500q0 -240 -151 -381t-379 -141q-230 0 -377 138.5t-147 365.5q0 233 148 375.5t392 142.5q228 0 371 -140t143 -360zM384 488q0 -130 56.5 -210t151.5 -80q93 0 149.5 79t56.5 213q0 128 -54 209t-150 81q-99 0 -154.5 -81.5t-55.5 -210.5zM450 1110h-138
q0 254 154 254q45 0 134 -40q65 -38 88 -38q29 0 39.5 21.5t14.5 66.5h136q0 -133 -39 -190.5t-121 -57.5q-58 0 -142 44q-54 30 -78 30q-42 0 -48 -90z" />
    <glyph glyph-name="uacute" unicode="&#xfa;" horiz-adv-x="1198" 
d="M1072 978v-662q0 -157 8 -316h-268l-14 142h-8q-104 -164 -314 -164q-168 0 -261 109.5t-93 316.5v574h310v-522q0 -230 160 -230q67 0 118.5 49t51.5 125v578h310zM646 1402h286l-250 -306h-212z" />
    <glyph glyph-name="ugrave" unicode="&#xf9;" horiz-adv-x="1198" 
d="M1072 978v-662q0 -157 8 -316h-268l-14 142h-8q-104 -164 -314 -164q-168 0 -261 109.5t-93 316.5v574h310v-522q0 -230 160 -230q67 0 118.5 49t51.5 125v578h310zM266 1402h286l176 -306h-212z" />
    <glyph glyph-name="ucircumflex" unicode="&#xfb;" horiz-adv-x="1198" 
d="M1072 978v-662q0 -157 8 -316h-268l-14 142h-8q-104 -164 -314 -164q-168 0 -261 109.5t-93 316.5v574h310v-522q0 -230 160 -230q67 0 118.5 49t51.5 125v578h310zM500 1402h198l202 -306h-198l-102 174l-106 -174h-196z" />
    <glyph glyph-name="udieresis" unicode="&#xfc;" horiz-adv-x="1198" 
d="M1072 978v-662q0 -157 8 -316h-268l-14 142h-8q-104 -164 -314 -164q-168 0 -261 109.5t-93 316.5v574h310v-522q0 -230 160 -230q67 0 118.5 49t51.5 125v578h310zM532 1228q0 -57 -38.5 -97.5t-95.5 -40.5q-59 0 -99.5 41t-40.5 97q0 58 41 98t101 40q56 0 94 -39.5
t38 -98.5zM948 1228q0 -57 -38.5 -97.5t-97.5 -40.5q-58 0 -98 40.5t-40 97.5q0 59 39.5 98.5t98.5 39.5q58 0 97 -39t39 -99z" />
    <glyph glyph-name="dagger" unicode="&#x2020;" horiz-adv-x="1070" 
d="M394 1348h282l-28 -404l352 24v-236l-352 26l28 -858h-282l28 858l-352 -26v236l352 -24z" />
    <glyph glyph-name="degree" unicode="&#xb0;" horiz-adv-x="728" 
d="M54 1068q0 125 90.5 213.5t221.5 88.5q132 0 221 -87.5t89 -210.5q0 -126 -92 -213t-220 -87q-132 0 -221 86.5t-89 209.5zM512 1070q0 66 -40 111t-106 45q-63 0 -103.5 -46t-40.5 -112q0 -64 41.5 -108t102.5 -44q64 0 105 43.5t41 110.5z" />
    <glyph glyph-name="cent" unicode="&#xa2;" horiz-adv-x="1140" 
d="M774 -24h-200v196q-199 29 -308.5 158t-109.5 326q0 187 110 325.5t308 178.5v188h200v-180q98 -4 196 -40l-50 -226q-76 36 -182 36q-121 0 -193.5 -73.5t-72.5 -194.5q0 -126 74.5 -198t193.5 -72q109 0 202 36l38 -222q-82 -38 -206 -48v-190z" />
    <glyph glyph-name="sterling" unicode="&#xa3;" horiz-adv-x="1140" 
d="M1042 0h-936v162q101 44 164.5 125t63.5 171q0 52 -6 76h-198v212h162q-14 84 -14 156q0 188 127.5 304t332.5 116q152 0 244 -50l-50 -232q-70 38 -176 38q-94 0 -143 -50t-49 -140q0 -58 18 -142h284v-212h-256q0 -87 -22 -149.5t-94 -128.5v-4h548v-252z" />
    <glyph glyph-name="section" unicode="&#xa7;" horiz-adv-x="1152" 
d="M954 1308l-48 -188q-120 58 -274 58q-87 0 -135.5 -26t-48.5 -70q0 -43 52.5 -75t167.5 -65q230 -68 311 -150.5t81 -203.5q0 -151 -150 -242q92 -74 92 -188q0 -155 -129 -238.5t-325 -83.5q-239 0 -386 92l60 186q156 -86 312 -86q87 0 136.5 27t49.5 75t-46.5 80
t-167.5 68q-246 75 -330 156.5t-84 193.5q0 70 44.5 138t125.5 106q-82 72 -82 184q0 144 123 228t323 84q188 0 328 -60zM406 788q-72 -36 -72 -104q0 -95 178 -156q225 -77 244 -86q60 38 60 104q0 40 -27 73t-70.5 52.5t-157.5 58.5q-122 43 -155 58z" />
    <glyph glyph-name="bullet" unicode="&#x2022;" horiz-adv-x="688" 
d="M610 686q0 -110 -78 -188t-188 -78t-188 77t-78 189q0 110 78.5 188t187.5 78t187.5 -78t78.5 -188z" />
    <glyph glyph-name="paragraph" unicode="&#xb6;" horiz-adv-x="1112" 
d="M618 -94h-198v622h-12q-117 0 -229.5 105t-112.5 271q0 146 67.5 248t201.5 154t333 52q193 0 294 -22v-1430h-198v1258h-146v-1258z" />
    <glyph glyph-name="germandbls" unicode="&#xdf;" horiz-adv-x="1224" 
d="M436 0h-310v862q0 294 138.5 439t385.5 145q190 0 314 -104t124 -270q0 -105 -50 -164q-116 -55 -116 -138q0 -61 68 -132q162 -172 162 -314q0 -157 -110 -251.5t-300 -94.5q-136 0 -218 34l38 226q57 -28 142 -28q62 0 99 28.5t37 73.5q0 57 -72 132q-158 163 -158 286
q0 162 164 252q16 31 16 66q0 72 -44 118t-116 46q-194 0 -194 -324v-888z" />
    <glyph glyph-name="registered" unicode="&#xae;" horiz-adv-x="1020" 
d="M62 920q0 186 132 318t318 132q185 0 315.5 -132t130.5 -318q0 -189 -130 -320.5t-316 -131.5t-318 132.5t-132 319.5zM854 918q0 150 -100.5 256t-241.5 106t-241.5 -106t-100.5 -256t100 -255t242 -105t242 105t100 255zM434 864v-206h-106v500q91 14 160 14
q112 0 164 -34t52 -114q0 -88 -96 -116v-4q68 -13 80 -122q11 -85 26 -124h-108q-13 17 -30 130q-11 76 -94 76h-48zM434 1090v-144h50q110 0 110 72q0 74 -102 74q-46 0 -58 -2z" />
    <glyph glyph-name="copyright" unicode="&#xa9;" horiz-adv-x="1354" 
d="M64 680q0 254 180.5 435t435.5 181q253 0 431.5 -180.5t178.5 -435.5q0 -258 -177.5 -439t-432.5 -181t-435.5 181.5t-180.5 438.5zM1160 678q0 209 -141 356.5t-339 147.5q-200 0 -341 -147.5t-141 -358.5q0 -209 141 -355.5t341 -146.5q199 0 339.5 147t140.5 357z
M948 984l-30 -108q-80 46 -190 46q-117 0 -182.5 -65.5t-65.5 -182.5q0 -109 69 -179.5t177 -70.5q125 0 202 50l30 -104q-99 -64 -248 -64q-169 0 -269.5 101t-100.5 261q0 162 113.5 267t272.5 105q68 0 133.5 -16.5t88.5 -39.5z" />
    <glyph glyph-name="trademark" unicode="&#x2122;" horiz-adv-x="1784" 
d="M34 1348h658v-162h-232v-634h-198v634h-228v162zM1688 552h-192q-20 376 -24 654h-4q-38 -158 -194 -640h-154q-112 394 -128 462l-42 178h-4q-4 -267 -26 -654h-180l54 796h272q105 -347 150 -534h4q56 213 67 245l95 289h258z" />
    <glyph glyph-name="acute" unicode="&#xb4;" 
d="M320 1402h286l-250 -306h-212z" />
    <glyph glyph-name="dieresis" unicode="&#xa8;" 
d="M228 1228q0 -57 -38.5 -97.5t-95.5 -40.5q-59 0 -99.5 41t-40.5 97q0 58 41 98t101 40q56 0 94 -39.5t38 -98.5zM644 1228q0 -57 -38.5 -97.5t-97.5 -40.5q-58 0 -98 40.5t-40 97.5q0 59 39.5 98.5t98.5 39.5q58 0 97 -39t39 -99z" />
    <glyph glyph-name="notequal" unicode="&#x2260;" horiz-adv-x="1192" 
d="M1112 232h-600l-154 -276l-170 96l100 180h-208v188h318l136 244h-454v188h566l166 292l168 -96l-110 -196h242v-188h-354l-136 -244h490v-188z" />
    <glyph glyph-name="AE" unicode="&#xc6;" horiz-adv-x="1798" 
d="M328 0h-320l594 1348h1060v-252h-576l36 -282h532v-250h-490l44 -312h532v-252h-798l-50 368h-410zM578 618h278l-68 512h-6l-68 -184z" />
    <glyph glyph-name="Oslash" unicode="&#xd8;" horiz-adv-x="1490" 
d="M320 -136l-170 136l118 168q-196 196 -196 504q0 302 190 500t486 198q174 0 310 -72l116 164l176 -122l-116 -166q184 -196 184 -492q0 -317 -188 -510.5t-484 -193.5q-162 0 -298 68zM912 1084q-77 48 -166 48q-164 0 -263 -127t-99 -331q0 -133 56 -252zM1054 910
l-460 -648q61 -46 152 -46q163 0 261.5 126.5t98.5 333.5q0 122 -52 234z" />
    <glyph glyph-name="infinity" unicode="&#x221e;" horiz-adv-x="1460" 
d="M653 668q71 169 159 222.5t212 53.5q161 0 272 -116.5t111 -301.5q0 -186 -111.5 -303t-238.5 -117q-95 0 -170.5 63t-165.5 224q-117 -233 -324 -233q-149 0 -246.5 104.5t-97.5 263.5q0 157 89 262t218 105q80 0 149 -42t144 -185zM750 465q64 -138 134.5 -201
t176.5 -63q126 0 207.5 91t81.5 234q0 140 -84 240t-199 100q-55 0 -97.5 -21.5t-74.5 -62t-64 -116.5zM614 557l11 33q-96 215 -267 215q-110 0 -179.5 -76.5t-69.5 -198.5q0 -123 66.5 -207.5t162.5 -84.5q82 0 149.5 65t126.5 254z" />
    <glyph glyph-name="plusminus" unicode="&#xb1;" horiz-adv-x="1192" 
d="M498 1160h198v-346h416v-188h-416v-354h-198v354h-416v188h416v346zM82 188h1030v-188h-1030v188z" />
    <glyph glyph-name="lessequal" unicode="&#x2264;" horiz-adv-x="1192" 
d="M1088 1364v-192l-760 -328l760 -330v-190l-974 428v184zM114 0v188h974v-188h-974z" />
    <glyph glyph-name="greaterequal" unicode="&#x2265;" horiz-adv-x="1192" 
d="M90 1364l1014 -428v-184l-1014 -428v190l778 330l-778 328v192zM90 0v188h1014v-188h-1014z" />
    <glyph glyph-name="yen" unicode="&#xa5;" horiz-adv-x="1140" 
d="M704 0h-290v318h-318v144h318v128h-318v144h244l-338 566h336l145 -316q34 -75 85 -218h4q12 29 38.5 100t50.5 122l147 312h328l-354 -566h244v-144h-322v-128h322v-144h-322v-318z" />
    <glyph glyph-name="mu" unicode="&#xb5;" horiz-adv-x="1198" 
d="M1072 978v-662q0 -157 8 -316h-268l-14 146h-8q-96 -164 -256 -164q-103 0 -154 66h-6l24 -444h-276v1374h310v-520q0 -228 162 -228q75 0 121.5 55.5t46.5 86.5v606h310z" />
    <glyph glyph-name="partialdiff" unicode="&#x2202;" horiz-adv-x="952" 
d="M192 1276l-76 100q140 60 274 60q179 0 317 -124.5t182.5 -294.5t44.5 -279q0 -388 -154 -601t-366 -213q-188 0 -292 112.5t-104 269.5q0 174 110 318t300 144q87 0 148.5 -26t145.5 -90q16 105 16 198q0 79 -34.5 214.5t-126 208.5t-173.5 73q-101 0 -212 -70zM704 552
q-115 122 -208 122q-143 0 -215.5 -137t-72.5 -281q0 -65 21 -136t66 -92.5t81 -21.5q134 0 218.5 188.5t109.5 357.5z" />
    <glyph glyph-name="summation" unicode="&#x2211;" horiz-adv-x="1200" 
d="M30 0l586 662l-582 750h1008l10 -266h-34q-26 96 -68.5 116t-161.5 20h-392l436 -560l-486 -550h560q109 0 150 42.5t78 141.5h38q-52 -199 -72 -376q-69 20 -138 20h-932z" />
    <glyph glyph-name="product" unicode="&#x220f;" horiz-adv-x="1686" 
d="M1645 -213h-629v47q120 0 159.5 41t39.5 125v1419h-734v-1419q0 -84 39.5 -125t159.5 -41v-47h-629v47q122 0 160.5 41t38.5 125v1282q0 101 -48.5 152t-146.5 51v47h1586v-47q-98 0 -146.5 -51t-48.5 -152v-1282q0 -84 38.5 -125t160.5 -41v-47z" />
    <glyph glyph-name="integral" unicode="&#x222b;" horiz-adv-x="561" 
d="M602 1479q0 -39 -29.5 -64t-75.5 -25q-37 0 -60 25t-44 25q-18 0 -27.5 -14.5t-9.5 -43.5q0 -34 19.5 -256t19.5 -551q0 -505 -30 -709.5t-79 -282.5q-26 -41 -67.5 -62t-85.5 -21q-49 0 -86 35t-37 85q0 38 25.5 65t64.5 27q34 0 65.5 -33t44.5 -33q25 0 39.5 44.5
t14.5 153.5q0 37 -6 197t-6 562q0 481 17 638.5t41 215.5q29 70 69 104t84 34q57 0 98 -32.5t41 -83.5z" />
    <glyph glyph-name="ordfeminine" unicode="&#xaa;" horiz-adv-x="774" 
d="M700 534h-194l-14 66h-4q-80 -76 -204 -76q-98 0 -158 55.5t-60 140.5q0 112 108.5 172t297.5 60v12q0 25 -26.5 50.5t-97.5 25.5q-104 0 -192 -52l-42 128q119 66 274 66q146 0 223 -74t77 -204v-214q0 -98 12 -156zM480 768v64q-202 0 -202 -96q0 -33 25 -54.5
t63 -21.5q45 0 79.5 30t34.5 78z" />
    <glyph glyph-name="ordmasculine" unicode="&#xba;" horiz-adv-x="790" 
d="M46 848q0 147 98.5 240.5t253.5 93.5q153 0 248.5 -91t95.5 -231q0 -159 -102 -247.5t-248 -88.5q-148 0 -247 91t-99 233zM524 854q0 72 -35.5 125t-92.5 53q-60 0 -94 -53t-34 -129q0 -75 36 -125.5t92 -50.5q59 0 93.5 48.5t34.5 131.5z" />
    <glyph glyph-name="Ohm" unicode="&#x2126;" horiz-adv-x="1573" 
d="M1506 0h-604l33 311q161 59 226 200t65 313q0 227 -107 373t-331 146t-331 -146t-107 -373q0 -172 65 -313t226 -200l33 -311h-604v332h30q16 -66 40 -95.5t96 -29.5h323l-4 57q-238 65 -341 221t-103 332q0 259 192 425.5t485 166.5t485 -166.5t192 -425.5
q0 -176 -103 -332t-341 -221l-4 -57h323q72 0 96 29.5t40 95.5h30v-332z" />
    <glyph glyph-name="ae" unicode="&#xe6;" horiz-adv-x="1646" 
d="M1578 402h-636q6 -90 80.5 -143t189.5 -53q154 0 284 54l42 -206q-145 -76 -370 -76q-126 0 -227.5 45.5t-152.5 128.5h-8q-129 -174 -374 -174q-156 0 -251 87t-95 219q0 175 158.5 267.5t437.5 92.5v28q0 37 -48 75.5t-144 38.5q-143 0 -272 -76l-60 196q179 94 354 94
q238 0 336 -160q127 160 342 160q198 0 310 -140t112 -348q0 -21 -8 -110zM940 612h360q0 81 -45 133.5t-127 52.5q-80 0 -131.5 -55t-56.5 -131zM664 358v98q-298 0 -298 -150q0 -52 35.5 -82t92.5 -30q60 0 103 31.5t55 61.5t12 71z" />
    <glyph glyph-name="oslash" unicode="&#xf8;" horiz-adv-x="1186" 
d="M246 96q-178 141 -178 390q0 229 145.5 371.5t380.5 142.5q138 0 246 -54l96 142l104 -74l-92 -134q172 -140 172 -386q0 -154 -68 -271t-190 -181t-266 -64q-137 0 -238 52l-102 -144l-100 80zM410 328l296 418q-47 34 -112 34q-106 0 -166 -83t-60 -209q0 -98 38 -158z
M786 642l-296 -410q39 -34 106 -34q104 0 166 78t62 210q0 91 -34 154z" />
    <glyph glyph-name="questiondown" unicode="&#xbf;" horiz-adv-x="916" 
d="M326 804q0 80 51 132t131 52t131 -52t51 -132t-50 -132t-132 -52q-80 0 -131 52t-51 132zM368 528h270q2 -63 2 -71q0 -157 -118 -293q-77 -88 -98.5 -131t-21.5 -77q0 -118 146 -118q116 0 208 62l70 -220q-149 -84 -346 -84q-183 0 -286.5 86.5t-103.5 225.5
q0 70 36.5 147.5t137.5 186.5q104 112 104 252v34z" />
    <glyph glyph-name="exclamdown" unicode="&#xa1;" horiz-adv-x="542" 
d="M90 804q0 80 51 132t131 52t131 -52t51 -132q0 -82 -50 -133t-132 -51q-80 0 -131 51.5t-51 132.5zM432 -382h-318l44 904h230z" />
    <glyph glyph-name="logicalnot" unicode="&#xac;" horiz-adv-x="1192" 
d="M80 844h1032v-632h-198v444h-834v188z" />
    <glyph glyph-name="radical" unicode="&#x221a;" horiz-adv-x="906" 
d="M654 -182l-466 962l-164 -80l-42 86l276 136l296 -612l202 1220l170 -30z" />
    <glyph glyph-name="florin" unicode="&#x192;" horiz-adv-x="1140" 
d="M236 614v212h186q50 496 448 496q103 0 168 -32l-48 -218q-47 18 -98 18q-61 0 -107 -43t-65 -221h206v-212h-232q-49 -379 -60.5 -451.5t-53.5 -159t-124 -137t-212 -50.5q-113 0 -186 34l44 216q45 -18 96 -18q88 0 117 69.5t41 161.5l40 335h-160z" />
    <glyph glyph-name="approxequal" unicode="&#x2248;" horiz-adv-x="1124" 
d="M1022 874h51q-21 -155 -95.5 -238t-186.5 -83q-97 0 -304 117q-139 78 -211 78q-149 0 -178 -187h-47q20 154 93.5 238t181.5 84q47 0 107 -19.5t224 -107.5q118 -62 193 -62q144 0 172 180zM1022 487h51q-21 -155 -95.5 -238t-186.5 -83q-96 0 -268.5 97t-246.5 97
q-149 0 -178 -186h-47q20 153 93.5 236.5t181.5 83.5q47 0 112 -21.5t219 -103.5q118 -62 193 -62q144 0 172 180z" />
    <glyph glyph-name="Delta" unicode="&#x2206;" horiz-adv-x="1224" 
d="M652 1376l564 -1376h-1204zM580 1034l-436 -936h824z" />
    <glyph glyph-name="guillemotleft" unicode="&#xab;" horiz-adv-x="948" 
d="M504 888l-242 -382l242 -384h-214l-234 384l234 382h214zM900 888l-242 -382l242 -384h-214l-234 384l234 382h214z" />
    <glyph glyph-name="guillemotright" unicode="&#xbb;" horiz-adv-x="948" 
d="M292 506l-242 382h212l236 -382l-236 -384h-212zM682 506l-242 382h212l236 -382l-236 -384h-212z" />
    <glyph glyph-name="ellipsis" unicode="&#x2026;" horiz-adv-x="2000" 
d="M516 164q0 -82 -51.5 -134t-132.5 -52q-80 0 -131 52.5t-51 133.5t52 133.5t132 52.5q81 0 131.5 -52t50.5 -134zM1182 164q0 -82 -51.5 -134t-132.5 -52q-80 0 -131 52.5t-51 133.5t52 133.5t132 52.5q81 0 131.5 -52t50.5 -134zM1848 164q0 -82 -51.5 -134t-132.5 -52
q-80 0 -131 52.5t-51 133.5t51.5 133.5t132.5 52.5t131.5 -52t50.5 -134z" />
    <glyph glyph-name="space" unicode="&#xa0;" horiz-adv-x="414" 
 />
    <glyph glyph-name="Agrave" unicode="&#xc0;" horiz-adv-x="1358" 
d="M864 352h-404l-100 -352h-322l426 1348h408l438 -1348h-336zM506 580h310q-122 395 -158 542h-4l-64 -256zM312 1704h322l176 -250h-248z" />
    <glyph glyph-name="Atilde" unicode="&#xc3;" horiz-adv-x="1358" 
d="M864 352h-404l-100 -352h-322l426 1348h408l438 -1348h-336zM506 580h310q-122 395 -158 542h-4l-64 -256zM537 1458h-142q0 254 156 254q56 0 132 -40q80 -40 90 -40q30 0 40.5 21.5t15.5 66.5h138q0 -151 -43.5 -199.5t-116.5 -48.5q-64 0 -132 38q-68 36 -90 36
q-42 0 -48 -88z" />
    <glyph glyph-name="Otilde" unicode="&#xd5;" horiz-adv-x="1490" 
d="M1418 686q0 -321 -188.5 -514.5t-495.5 -193.5q-298 0 -480 192.5t-182 493.5q0 308 190 507t490 199q302 0 484 -192t182 -492zM398 672q0 -198 95 -324t249 -126q158 0 252 125t94 329q0 196 -94.5 323t-249.5 127q-156 0 -251 -127.5t-95 -326.5zM602 1458h-142
q0 254 156 254q56 0 132 -40q80 -40 90 -40q30 0 40.5 21.5t15.5 66.5h138q0 -151 -43.5 -199.5t-116.5 -48.5q-64 0 -132 38q-68 36 -90 36q-42 0 -48 -88z" />
    <glyph glyph-name="OE" unicode="&#x152;" horiz-adv-x="1938" 
d="M1860 252v-252h-788q-48 0 -128 -10q-96 -12 -174 -12q-325 0 -511.5 191t-186.5 493q0 322 193.5 515t508.5 193q105 0 192 -10q104 -12 132 -12h734v-252h-550v-278h518v-250h-518v-316h578zM972 246v852q-63 28 -166 28q-177 0 -291.5 -123.5t-114.5 -330.5
q0 -203 115.5 -326.5t312.5 -123.5q88 0 144 24z" />
    <glyph glyph-name="oe" unicode="&#x153;" horiz-adv-x="1784" 
d="M1716 396h-636q7 -86 85 -137t189 -51q146 0 280 54l42 -208q-138 -76 -364 -76q-247 0 -376 174q-127 -174 -378 -174q-211 0 -351.5 141t-140.5 367q0 228 142.5 371t369.5 143q114 0 209 -46t149 -130q124 176 350 176q209 0 323.5 -137.5t114.5 -352.5q0 -33 -8 -114
zM1072 606h364q0 85 -45 137.5t-133 52.5q-78 0 -129 -55t-57 -135zM794 490q0 130 -53 210t-145 80q-101 0 -155.5 -80t-54.5 -212q0 -130 56 -210t150 -80q93 0 147.5 78t54.5 214z" />
    <glyph glyph-name="endash" unicode="&#x2013;" horiz-adv-x="1000" 
d="M60 600h880v-188h-880v188z" />
    <glyph glyph-name="emdash" unicode="&#x2014;" horiz-adv-x="2000" 
d="M60 600h1880v-188h-1880v188z" />
    <glyph glyph-name="quotedblleft" unicode="&#x201c;" horiz-adv-x="934" 
d="M698 1370l190 16q-96 -268 -140 -544l-292 -18q102 313 242 546zM298 1370l190 16q-96 -268 -140 -544l-292 -18q95 302 242 546z" />
    <glyph glyph-name="quotedblright" unicode="&#x201d;" horiz-adv-x="934" 
d="M246 842l-190 -18q96 268 140 544l292 18q-105 -319 -242 -544zM646 842l-190 -18q96 268 140 544l292 18q-98 -308 -242 -544z" />
    <glyph glyph-name="quoteleft" unicode="&#x2018;" horiz-adv-x="536" 
d="M300 1370l190 16q-96 -268 -140 -544l-292 -18q95 302 242 546z" />
    <glyph glyph-name="quoteright" unicode="&#x2019;" horiz-adv-x="536" 
d="M246 842l-190 -18q96 268 140 544l292 18q-98 -308 -242 -544z" />
    <glyph glyph-name="divide" unicode="&#xf7;" horiz-adv-x="1192" 
d="M746 886q0 -67 -41 -108.5t-109 -41.5q-65 0 -106.5 42t-41.5 108q0 69 41 110.5t109 41.5q66 0 107 -42t41 -110zM1110 440h-1032v188h1032v-188zM744 180q0 -67 -41 -108.5t-109 -41.5q-65 0 -106.5 42t-41.5 108q0 69 41 110.5t109 41.5q66 0 107 -42t41 -110z" />
    <glyph glyph-name="lozenge" unicode="&#x25ca;" horiz-adv-x="942" 
d="M404 0l-390 740l390 724h136l390 -724l-390 -740h-136zM216 740l256 -496l256 496l-256 484z" />
    <glyph glyph-name="ydieresis" unicode="&#xff;" horiz-adv-x="1076" 
d="M14 978h344q189 -600 202 -662h6l172 662h332l-226 -619q-91 -250 -165 -396.5t-147.5 -225t-164.5 -124t-187 -55.5l-64 260q131 26 206.5 102t75.5 112q0 13 -16 52zM490 1228q0 -57 -38.5 -97.5t-95.5 -40.5q-59 0 -99.5 41t-40.5 97q0 58 41 98t101 40q56 0 94 -39.5
t38 -98.5zM906 1228q0 -57 -38.5 -97.5t-97.5 -40.5q-58 0 -98 40.5t-40 97.5q0 59 39.5 98.5t98.5 39.5q58 0 97 -39t39 -99z" />
    <glyph glyph-name="Ydieresis" unicode="&#x178;" horiz-adv-x="1252" 
d="M774 0h-310v556l-440 792h356q245 -557 254 -580q46 124 250 580h352l-462 -780v-568zM571 1592q0 -56 -38 -96t-94 -40q-60 0 -101 40t-41 96q0 58 41 98t101 40q55 0 93.5 -40t38.5 -98zM985 1592q0 -57 -38.5 -96.5t-95.5 -39.5q-60 0 -99 39.5t-39 96.5
q0 59 39.5 98.5t98.5 39.5q57 0 95.5 -40t38.5 -98z" />
    <glyph glyph-name="fraction" unicode="&#x2044;" horiz-adv-x="874" 
d="M148 -22h-168l744 1344h168z" />
    <glyph glyph-name="currency" unicode="&#xa4;" horiz-adv-x="1140" 
d="M334 1030q97 74 236 74q141 0 238 -70l156 168l136 -140l-176 -156q66 -104 66 -232q0 -142 -72 -242l170 -162l-134 -136l-148 178q-99 -80 -238 -80q-144 0 -236 76l-146 -174l-134 136l168 158q-74 103 -74 240q0 134 72 238l-176 156l136 140zM764 672
q0 98 -55.5 162t-138.5 64t-138.5 -63.5t-55.5 -164.5q0 -106 58.5 -169t135.5 -63q80 0 137 62.5t57 171.5z" />
    <glyph glyph-name="guilsinglleft" unicode="&#x2039;" horiz-adv-x="552" 
d="M504 888l-242 -382l242 -384h-214l-234 384l234 382h214z" />
    <glyph glyph-name="guilsinglright" unicode="&#x203a;" horiz-adv-x="552" 
d="M290 506l-242 382h212l236 -382l-236 -384h-212z" />
    <glyph glyph-name="fi" unicode="&#xf001;" horiz-adv-x="1200" 
d="M468 0h-310v750h-128v228h128v40q0 201 141 314.5t379 113.5q189 0 296 -64l-62 -230q-92 50 -226 50q-220 0 -220 -190v-34h608v-978h-310v750h-296v-750z" />
    <glyph glyph-name="fl" unicode="&#xf002;" horiz-adv-x="1200" 
d="M468 0h-310v750h-128v228h128v42q0 171 133.5 298.5t396.5 127.5q228 0 386 -86v-1360h-310v1196q-35 22 -120 22t-131.5 -54t-46.5 -148v-38h182v-228h-180v-750z" />
    <glyph glyph-name="daggerdbl" unicode="&#x2021;" horiz-adv-x="1070" 
d="M396 1348h278l-22 -372l348 24v-236l-348 26v-316l348 26v-236l-348 24l22 -388h-276l20 388l-348 -24v236l348 -26v316l-348 -26v236l348 -24z" />
    <glyph glyph-name="periodcentered" unicode="&#x2219;" horiz-adv-x="526" 
d="M446 532q0 -82 -51.5 -134t-132.5 -52q-80 0 -131 52.5t-51 133.5t52 133.5t132 52.5q81 0 131.5 -52t50.5 -134z" />
    <glyph glyph-name="quotesinglbase" unicode="&#x201a;" horiz-adv-x="536" 
d="M226 -190l-190 -16q96 268 140 544l292 18q-95 -302 -242 -546z" />
    <glyph glyph-name="quotedblbase" unicode="&#x201e;" horiz-adv-x="946" 
d="M224 -190l-190 -16q96 268 140 544l292 18q-102 -313 -242 -546zM624 -190l-190 -16q96 268 140 544l292 18q-95 -302 -242 -546z" />
    <glyph glyph-name="perthousand" unicode="&#x2030;" horiz-adv-x="2646" 
d="M56 914q0 178 103.5 293t270.5 115q166 0 264 -106t98 -280q0 -188 -107 -302t-265 -114q-157 0 -260.5 108t-103.5 286zM562 922q0 104 -33 167t-101 63q-65 0 -101.5 -62.5t-36.5 -169.5q0 -102 36 -166t102 -64q134 0 134 232zM610 -22h-166l752 1342h166zM1018 374
q0 179 104 293.5t270 114.5t264 -106t98 -280q0 -194 -109 -305t-263 -111q-157 0 -260.5 108t-103.5 286zM1524 382q0 104 -33 167t-101 63q-65 0 -101.5 -62.5t-36.5 -169.5q0 -105 37 -167.5t101 -62.5q134 0 134 232zM1850 374q0 179 104 293.5t270 114.5t264 -106
t98 -280q0 -194 -109 -305t-263 -111q-157 0 -260.5 108t-103.5 286zM2356 382q0 110 -34.5 170t-99.5 60t-101.5 -62.5t-36.5 -169.5q0 -102 36 -166t102 -64q134 0 134 232z" />
    <glyph glyph-name="Acircumflex" unicode="&#xc2;" horiz-adv-x="1358" 
d="M864 352h-404l-100 -352h-322l426 1348h408l438 -1348h-336zM506 580h310q-122 395 -158 542h-4l-64 -256zM577 1702h220l210 -252h-214l-104 132l-106 -132h-216z" />
    <glyph glyph-name="Ecircumflex" unicode="&#xca;" horiz-adv-x="1100" 
d="M962 818v-250h-518v-316h578v-252h-888v1348h860v-252h-550v-278h518zM465 1702h220l210 -252h-214l-104 132l-106 -132h-216z" />
    <glyph glyph-name="Aacute" unicode="&#xc1;" horiz-adv-x="1358" 
d="M864 352h-404l-100 -352h-322l426 1348h408l438 -1348h-336zM506 580h310q-122 395 -158 542h-4l-64 -256zM713 1702h324l-248 -252h-248z" />
    <glyph glyph-name="Edieresis" unicode="&#xcb;" horiz-adv-x="1100" 
d="M962 818v-250h-518v-316h578v-252h-888v1348h860v-252h-550v-278h518zM490 1592q0 -56 -38 -96t-94 -40q-60 0 -101 40t-41 96q0 58 41 98t101 40q55 0 93.5 -40t38.5 -98zM904 1592q0 -57 -38.5 -96.5t-95.5 -39.5q-60 0 -99 39.5t-39 96.5q0 59 39.5 98.5t98.5 39.5
q57 0 95.5 -40t38.5 -98z" />
    <glyph glyph-name="Egrave" unicode="&#xc8;" horiz-adv-x="1100" 
d="M962 818v-250h-518v-316h578v-252h-888v1348h860v-252h-550v-278h518zM233 1704h322l176 -250h-248z" />
    <glyph glyph-name="Iacute" unicode="&#xcd;" horiz-adv-x="578" 
d="M134 1348h310v-1348h-310v1348zM315 1702h324l-248 -252h-248z" />
    <glyph glyph-name="Icircumflex" unicode="&#xce;" horiz-adv-x="578" 
d="M134 1348h310v-1348h-310v1348zM182 1702h220l210 -252h-214l-104 132l-106 -132h-216z" />
    <glyph glyph-name="Idieresis" unicode="&#xcf;" horiz-adv-x="578" 
d="M134 1348h310v-1348h-310v1348zM220 1592q0 -56 -38 -96t-94 -40q-60 0 -101 40t-41 96q0 58 41 98t101 40q55 0 93.5 -40t38.5 -98zM634 1592q0 -57 -38.5 -96.5t-95.5 -39.5q-60 0 -99 39.5t-39 96.5q0 59 39.5 98.5t98.5 39.5q57 0 95.5 -40t38.5 -98z" />
    <glyph glyph-name="Igrave" unicode="&#xcc;" horiz-adv-x="578" 
d="M134 1348h310v-1348h-310v1348zM-58 1704h322l176 -250h-248z" />
    <glyph glyph-name="Oacute" unicode="&#xd3;" horiz-adv-x="1490" 
d="M1418 686q0 -321 -188.5 -514.5t-495.5 -193.5q-298 0 -480 192.5t-182 493.5q0 308 190 507t490 199q302 0 484 -192t182 -492zM398 672q0 -198 95 -324t249 -126q158 0 252 125t94 329q0 196 -94.5 323t-249.5 127q-156 0 -251 -127.5t-95 -326.5zM784 1702h324
l-248 -252h-248z" />
    <glyph glyph-name="Ocircumflex" unicode="&#xd4;" horiz-adv-x="1490" 
d="M1418 686q0 -321 -188.5 -514.5t-495.5 -193.5q-298 0 -480 192.5t-182 493.5q0 308 190 507t490 199q302 0 484 -192t182 -492zM398 672q0 -198 95 -324t249 -126q158 0 252 125t94 329q0 196 -94.5 323t-249.5 127q-156 0 -251 -127.5t-95 -326.5zM636 1702h220
l210 -252h-214l-104 132l-106 -132h-216z" />
    <glyph glyph-name="apple" unicode="&#xf000;" horiz-adv-x="414" 
 />
    <glyph glyph-name="Ograve" unicode="&#xd2;" horiz-adv-x="1490" 
d="M1418 686q0 -321 -188.5 -514.5t-495.5 -193.5q-298 0 -480 192.5t-182 493.5q0 308 190 507t490 199q302 0 484 -192t182 -492zM398 672q0 -198 95 -324t249 -126q158 0 252 125t94 329q0 196 -94.5 323t-249.5 127q-156 0 -251 -127.5t-95 -326.5zM391 1704h322
l176 -250h-248z" />
    <glyph glyph-name="Uacute" unicode="&#xda;" horiz-adv-x="1406" 
d="M134 1348h310v-764q0 -176 66 -269t190 -93q262 0 262 362v764h310v-748q0 -305 -149 -463.5t-433 -158.5q-556 0 -556 626v744zM742 1702h324l-248 -252h-248z" />
    <glyph glyph-name="Ucircumflex" unicode="&#xdb;" horiz-adv-x="1406" 
d="M134 1348h310v-764q0 -176 66 -269t190 -93q262 0 262 362v764h310v-748q0 -305 -149 -463.5t-433 -158.5q-556 0 -556 626v744zM616 1702h220l210 -252h-214l-104 132l-106 -132h-216z" />
    <glyph glyph-name="Ugrave" unicode="&#xd9;" horiz-adv-x="1406" 
d="M134 1348h310v-764q0 -176 66 -269t190 -93q262 0 262 362v764h310v-748q0 -305 -149 -463.5t-433 -158.5q-556 0 -556 626v744zM359 1704h322l176 -250h-248z" />
    <glyph glyph-name="dotlessi" unicode="&#x131;" horiz-adv-x="560" 
d="M436 0h-310v978h310v-978z" />
    <glyph glyph-name="circumflex" unicode="&#x2c6;" 
d="M202 1402h198l202 -306h-198l-102 174l-106 -174h-196z" />
    <glyph glyph-name="tilde" unicode="&#x2dc;" 
d="M156 1110h-138q0 254 154 254q45 0 134 -40q65 -38 88 -38q29 0 39.5 21.5t14.5 66.5h136q0 -133 -39 -190.5t-121 -57.5q-58 0 -142 44q-54 30 -78 30q-42 0 -48 -90z" />
    <glyph glyph-name="macron" unicode="&#x2c9;" 
d="M46 1322h510v-158h-510v158z" />
    <glyph glyph-name="breve" unicode="&#x2d8;" 
d="M38 1382h148q20 -122 114 -122q105 0 116 122h148q-2 -125 -71 -192.5t-193 -67.5t-192 67.5t-70 192.5z" />
    <glyph glyph-name="dotaccent" unicode="&#x2d9;" 
d="M372 1228q0 -57 -38.5 -97.5t-95.5 -40.5q-59 0 -99.5 41t-40.5 97q0 58 41 98t101 40q56 0 94 -39.5t38 -98.5z" />
    <glyph glyph-name="ring" unicode="&#x2da;" horiz-adv-x="800" 
d="M168 1272q0 89 63.5 145.5t170.5 56.5t168.5 -55.5t61.5 -146.5q0 -85 -63.5 -140.5t-166.5 -55.5q-105 0 -169.5 55.5t-64.5 140.5zM494 1274q0 42 -25.5 70t-66.5 28q-42 0 -67 -28.5t-25 -71.5q0 -38 25.5 -66t64.5 -28q42 0 68 27.5t26 68.5z" />
    <glyph glyph-name="cedilla" unicode="&#xb8;" 
d="M242 8h164l-54 -96q64 -8 105 -48.5t41 -95.5q0 -92 -69 -134t-177 -42q-94 0 -162 40l40 112q59 -32 110 -32q72 0 72 52q0 61 -158 72z" />
    <glyph glyph-name="hungarumlaut" unicode="&#x2dd;" 
d="M110 1402h244l-194 -298h-174zM464 1402h244l-194 -298h-174z" />
    <glyph glyph-name="ogonek" unicode="&#x2db;" 
d="M308 0h152q-84 -42 -136 -101t-52 -105q0 -34 23 -55t57 -21q46 0 100 22l22 -110q-69 -36 -172 -36q-87 0 -138.5 44.5t-51.5 121.5q0 50 32 102.5t90.5 95t73.5 42.5z" />
    <glyph glyph-name="caron" unicode="&#x2c7;" 
d="M402 1096h-206l-202 306h198l108 -176l106 176h198z" />
    <glyph glyph-name="Lslash" unicode="&#x141;" horiz-adv-x="1066" 
d="M1016 0h-868v472l-154 -106v210l154 104v668h310v-462l260 172v-210l-260 -174v-414h558v-260z" />
    <glyph glyph-name="lslash" unicode="&#x142;" horiz-adv-x="588" 
d="M448 0h-310v448l-132 -104v216l132 106v758h310v-524l146 116v-220l-146 -114v-682z" />
    <glyph glyph-name="Scaron" unicode="&#x160;" horiz-adv-x="1114" 
d="M84 64l64 254q173 -88 352 -88q103 0 160.5 39t57.5 107q0 61 -52 102t-180 84q-386 128 -386 402q0 177 142 291.5t378 114.5q206 0 360 -70l-70 -246q-141 66 -294 66q-94 0 -147 -36t-53 -94q0 -53 44.5 -90.5t213.5 -97.5q187 -66 273.5 -163.5t86.5 -242.5
q0 -186 -146 -302t-408 -116q-224 0 -396 86zM697 1450h-226l-208 252h212l110 -132l104 132h214z" />
    <glyph glyph-name="scaron" unicode="&#x161;" horiz-adv-x="894" 
d="M68 48l56 220q54 -31 132.5 -52.5t139.5 -21.5q134 0 134 80q0 40 -32.5 62t-115.5 48q-288 89 -288 292q0 141 112.5 232.5t295.5 91.5q160 0 284 -58l-54 -212q-116 56 -220 56q-120 0 -120 -78q0 -35 36.5 -59t127.5 -53q140 -44 206 -116.5t66 -183.5
q0 -145 -114 -231.5t-318 -86.5q-188 0 -328 70zM556 1096h-206l-202 306h198l108 -176l106 176h198z" />
    <glyph glyph-name="Zcaron" unicode="&#x17d;" horiz-adv-x="1198" 
d="M50 0v166l668 920v6h-608v256h1014v-174l-654 -912v-6h666v-256h-1086zM729 1450h-226l-208 252h212l110 -132l104 132h214z" />
    <glyph glyph-name="zcaron" unicode="&#x17e;" horiz-adv-x="964" 
d="M44 0v176l357 425.5l121 132.5h-444v244h826v-184l-367 -440.5t-103 -105.5v-4h486v-244h-876zM595 1096h-206l-202 306h198l108 -176l106 176h198z" />
    <glyph glyph-name="brokenbar" unicode="&#xa6;" horiz-adv-x="580" 
d="M184 1348h214v-700h-214v700zM184 348h214v-700h-214v700z" />
    <glyph glyph-name="Eth" unicode="&#xd0;" horiz-adv-x="1458" 
d="M4 564v244h146v526q200 30 428 30q312 0 479.5 -86t248 -231t80.5 -337q0 -347 -213.5 -538.5t-660.5 -191.5q-206 0 -362 20v564h-146zM742 808v-244h-282v-338q25 -6 114 -6q235 0 359.5 122.5t124.5 355.5q0 209 -115.5 318.5t-334.5 109.5q-91 0 -148 -12v-306h282z
" />
    <glyph glyph-name="eth" unicode="&#xf0;" horiz-adv-x="1182" 
d="M222 950l-54 124l214 94q-86 53 -194 94l128 176q166 -56 334 -162l286 122l62 -120l-218 -92q336 -268 336 -672q0 -248 -149 -392t-375 -144q-227 0 -375.5 138t-148.5 358q0 209 143 339.5t341 130.5q85 0 146 -42l4 6q-81 103 -182 168zM386 476q0 -122 55.5 -200
t148.5 -78q96 0 150 76.5t54 209.5q0 151 -51 211.5t-149 60.5q-99 0 -153.5 -81t-54.5 -199z" />
    <glyph glyph-name="Yacute" unicode="&#xdd;" horiz-adv-x="1252" 
d="M774 0h-310v556l-440 792h356q245 -557 254 -580q46 124 250 580h352l-462 -780v-568zM683 1702h324l-248 -252h-248z" />
    <glyph glyph-name="yacute" unicode="&#xfd;" horiz-adv-x="1076" 
d="M14 978h344q189 -600 202 -662h6l172 662h332l-226 -619q-91 -250 -165 -396.5t-147.5 -225t-164.5 -124t-187 -55.5l-64 260q131 26 206.5 102t75.5 112q0 13 -16 52zM612 1402h286l-250 -306h-212z" />
    <glyph glyph-name="Thorn" unicode="&#xde;" horiz-adv-x="1190" 
d="M134 0v1348h306v-244q72 8 176 8q257 0 383.5 -114.5t126.5 -285.5q0 -235 -149.5 -347.5t-392.5 -112.5q-74 0 -144 10v-262h-306zM440 868v-366q49 -12 132 -12q120 0 184 52.5t64 145.5q0 91 -62.5 140.5t-177.5 49.5q-99 0 -140 -10z" />
    <glyph glyph-name="thorn" unicode="&#xfe;" horiz-adv-x="1230" 
d="M124 1354h310v-496h4q103 142 311 142q171 0 292 -138t121 -364q0 -240 -135 -380t-321 -140q-177 0 -268 116h-4v-490h-310v1750zM434 560v-156q0 -55 52 -122.5t144 -67.5q99 0 158.5 75.5t59.5 204.5q0 116 -58 191t-152 75t-149 -63.5t-55 -136.5z" />
    <glyph glyph-name="minus" unicode="&#x2212;" horiz-adv-x="1192" 
d="M80 628h1032v-188h-1032v188z" />
    <glyph glyph-name="multiply" unicode="&#xd7;" horiz-adv-x="1192" 
d="M80 920l132 134l384 -392l384 392l132 -134l-382 -392l382 -392l-134 -136l-382 392l-382 -392l-134 136l384 392z" />
    <glyph glyph-name="onesuperior" unicode="&#xb9;" horiz-adv-x="748" 
d="M542 534h-240v586l-164 -70l-30 168l226 94h208v-778z" />
    <glyph glyph-name="twosuperior" unicode="&#xb2;" horiz-adv-x="768" 
d="M68 534v112q285 242 325.5 297t40.5 99q0 43 -31.5 69.5t-88.5 26.5q-92 0 -176 -56l-64 152q128 88 300 88q143 0 226.5 -67t83.5 -175q0 -70 -41.5 -142t-238.5 -226v-4h296v-174h-632z" />
    <glyph glyph-name="threesuperior" unicode="&#xb3;" horiz-adv-x="762" 
d="M134 1110l-46 146q116 66 292 66q139 0 217.5 -54.5t78.5 -143.5q0 -125 -170 -176v-4q93 -11 146.5 -61t53.5 -123q0 -106 -100.5 -171t-267.5 -65q-172 0 -280 58l46 158q102 -54 204 -54q65 0 105.5 25t40.5 63q0 45 -50 71.5t-126 26.5h-64v138h60q67 0 111.5 21
t44.5 59q0 70 -106 70q-95 0 -190 -50z" />
    <glyph glyph-name="middot" unicode="&#xb7;" horiz-adv-x="526" 
d="M446 532q0 -82 -51.5 -134t-132.5 -52q-80 0 -131 52.5t-51 133.5t52 133.5t132 52.5q81 0 131.5 -52t50.5 -134z" />
    <glyph glyph-name="onehalf" unicode="&#xbd;" horiz-adv-x="1702" 
d="M486 534h-240v586l-164 -70l-30 168l226 94h208v-778zM480 -22h-168l744 1344h168zM992 2v112q285 242 325.5 297t40.5 99q0 43 -31.5 69.5t-88.5 26.5q-92 0 -176 -56l-64 152q128 88 300 88q143 0 226.5 -67t83.5 -175q0 -70 -41.5 -142t-238.5 -226v-4h296v-174h-632z
" />
    <glyph glyph-name="onequarter" unicode="&#xbc;" horiz-adv-x="1702" 
d="M510 534h-240v586l-164 -70l-30 168l226 94h208v-778zM528 -22h-168l744 1344h168zM1522 2h-222v180h-402v126l348 482h276v-458h108v-150h-108v-180zM1300 332v150q0 14 8 150h-4q-57 -110 -72 -131l-118 -167l6 -2h180z" />
    <glyph glyph-name="threequarters" unicode="&#xbe;" horiz-adv-x="1702" 
d="M134 1110l-46 146q116 66 292 66q139 0 217.5 -54.5t78.5 -143.5q0 -125 -170 -176v-4q93 -11 146.5 -61t53.5 -123q0 -106 -100.5 -171t-267.5 -65q-172 0 -280 58l46 158q102 -54 204 -54q65 0 105.5 25t40.5 63q0 45 -50 71.5t-126 26.5h-64v138h60q67 0 111.5 21
t44.5 59q0 70 -106 70q-95 0 -190 -50zM600 -18h-168l744 1344h168zM1542 2h-222v180h-402v126l348 482h276v-458h108v-150h-108v-180zM1320 332v150q0 14 8 150h-4q-57 -110 -72 -131l-118 -167l6 -2h180z" />
    <glyph glyph-name="hyphen" unicode="&#xad;" horiz-adv-x="658" 
d="M60 624h538v-204h-538v204z" />
    <glyph glyph-name="overscore" unicode="&#xaf;" horiz-adv-x="1000" 
d="M0 1600h1000v-100h-1000v100z" />
    <glyph glyph-name="foursuperior" unicode="&#xf003;" horiz-adv-x="748" 
d="M634 534h-222v180h-402v126l348 482h276v-458h108v-150h-108v-180zM412 864v150q0 14 8 150h-4q-57 -110 -72 -131l-118 -167l6 -2h180z" />
    <glyph glyph-name="pi1" unicode="&#xf006;" horiz-adv-x="1124" 
d="M1085 309q-5 -155 -75.5 -248.5t-167.5 -93.5q-79 0 -138.5 91.5t-59.5 281.5q0 42 2 80t5 72l35 329h-231q-60 -624 -98.5 -742.5t-130.5 -118.5q-39 0 -74 31t-35 82q0 46 72.5 128.5t80.5 150.5l60 469h-97q-40 0 -78.5 -19.5t-56.5 -45.5l-43 -64h-35
q49 152 120.5 228.5t164.5 76.5h764v-176h-258q-12 -120 -18.5 -240t-6.5 -241q0 -82 38 -133t95 -51q35 0 73.5 28.5t43.5 74.5q3 22 4.5 34.5t1.5 15.5h43z" />
    <glyph glyph-name="fi1" unicode="&#xfb01;" horiz-adv-x="1200" 
d="M468 0h-310v750h-128v228h128v40q0 201 141 314.5t379 113.5q189 0 296 -64l-62 -230q-92 50 -226 50q-220 0 -220 -190v-34h608v-978h-310v750h-296v-750z" />
    <glyph glyph-name="fl1" unicode="&#xfb02;" horiz-adv-x="1200" 
d="M468 0h-310v750h-128v228h128v42q0 171 133.5 298.5t396.5 127.5q228 0 386 -86v-1360h-310v1196q-35 22 -120 22t-131.5 -54t-46.5 -148v-38h182v-228h-180v-750z" />
    <glyph glyph-name="Gbreve" unicode="&#x11e;" horiz-adv-x="1412" 
d="M1304 774v-710q-245 -78 -470 -78q-380 0 -571 187.5t-191 484.5q0 321 218.5 512.5t575.5 191.5q244 0 392 -68l-66 -244q-137 60 -332 60q-211 0 -336.5 -115.5t-125.5 -318.5q0 -201 122.5 -321.5t323.5 -120.5q114 0 160 20v280h-218v240h518zM502 1696h160
q13 -108 122 -108q114 0 122 108h166q-11 -246 -286 -246q-133 0 -206.5 64t-77.5 182z" />
    <glyph glyph-name="gbreve" unicode="&#x11f;" horiz-adv-x="1202" 
d="M1076 688v-542q0 -286 -133 -426t-425 -140q-219 0 -364 78l62 234q137 -76 294 -76q123 0 192.5 66.5t69.5 191.5v64h-4q-97 -130 -274 -130q-185 0 -305.5 133t-120.5 343q0 226 132 371t324 145q190 0 278 -140h4l10 118h268q-8 -116 -8 -290zM766 444v130
q0 85 -49 139.5t-129 54.5q-89 0 -147.5 -75t-58.5 -201q0 -111 55 -184.5t151 -73.5q64 0 121 46.5t57 163.5zM340 1382h148q20 -122 114 -122q105 0 116 122h148q-2 -125 -71 -192.5t-193 -67.5t-192 67.5t-70 192.5z" />
    <glyph glyph-name="Scedilla" unicode="&#x1e9e;" horiz-adv-x="1114" 
d="M84 64l64 254q173 -88 352 -88q103 0 160.5 39t57.5 107q0 61 -52 102t-180 84q-386 128 -386 402q0 177 142 291.5t378 114.5q206 0 360 -70l-70 -246q-141 66 -294 66q-94 0 -147 -36t-53 -94q0 -53 44.5 -90.5t213.5 -97.5q187 -66 273.5 -163.5t86.5 -242.5
q0 -158 -106.5 -267.5t-309.5 -140.5l-42 -76q66 -9 106 -49.5t40 -96.5q0 -85 -64.5 -129.5t-179.5 -44.5q-96 0 -164 40l42 112q61 -32 110 -32q70 0 70 52q0 61 -158 72l74 142q-221 11 -368 86z" />
    <glyph glyph-name="Scedilla" unicode="&#xf00e;" horiz-adv-x="1114" 
d="M84 64l64 254q173 -88 352 -88q103 0 160.5 39t57.5 107q0 61 -52 102t-180 84q-386 128 -386 402q0 177 142 291.5t378 114.5q206 0 360 -70l-70 -246q-141 66 -294 66q-94 0 -147 -36t-53 -94q0 -53 44.5 -90.5t213.5 -97.5q187 -66 273.5 -163.5t86.5 -242.5
q0 -158 -106.5 -267.5t-309.5 -140.5l-42 -76q66 -9 106 -49.5t40 -96.5q0 -85 -64.5 -129.5t-179.5 -44.5q-96 0 -164 40l42 112q61 -32 110 -32q70 0 70 52q0 61 -158 72l74 142q-221 11 -368 86z" />
    <glyph glyph-name="scedilla" unicode="&#x1e9f;" horiz-adv-x="894" 
d="M68 48l56 220q54 -31 132.5 -52.5t139.5 -21.5q134 0 134 80q0 40 -32.5 62t-115.5 48q-288 89 -288 292q0 141 112.5 232.5t295.5 91.5q160 0 284 -58l-54 -212q-116 56 -220 56q-120 0 -120 -78q0 -35 36.5 -59t127.5 -53q140 -44 206 -116.5t66 -183.5
q0 -120 -81 -202.5t-235 -107.5l-42 -74q64 -8 105 -48.5t41 -95.5q0 -86 -64.5 -131t-181.5 -45q-94 0 -162 40l40 112q59 -32 110 -32q72 0 72 52q0 61 -158 72l74 144q-158 9 -278 68z" />
    <glyph glyph-name="scedilla" unicode="&#xf00f;" horiz-adv-x="894" 
d="M68 48l56 220q54 -31 132.5 -52.5t139.5 -21.5q134 0 134 80q0 40 -32.5 62t-115.5 48q-288 89 -288 292q0 141 112.5 232.5t295.5 91.5q160 0 284 -58l-54 -212q-116 56 -220 56q-120 0 -120 -78q0 -35 36.5 -59t127.5 -53q140 -44 206 -116.5t66 -183.5
q0 -120 -81 -202.5t-235 -107.5l-42 -74q64 -8 105 -48.5t41 -95.5q0 -86 -64.5 -131t-181.5 -45q-94 0 -162 40l40 112q59 -32 110 -32q72 0 72 52q0 61 -158 72l74 144q-158 9 -278 68z" />
    <glyph glyph-name="Cacute" unicode="&#x106;" horiz-adv-x="1238" 
d="M1116 280l48 -240q-138 -62 -362 -62q-341 0 -535.5 185.5t-194.5 492.5q0 324 212 519t546 195q225 0 350 -62l-64 -244q-125 54 -272 54q-203 0 -324.5 -118t-121.5 -326q0 -203 119.5 -321.5t328.5 -118.5q151 0 270 46zM778 1702h324l-248 -252h-248z" />
    <glyph glyph-name="cacute" unicode="&#x107;" horiz-adv-x="932" 
d="M844 252l38 -226q-113 -48 -286 -48q-242 0 -386 136.5t-144 365.5t155 374.5t419 145.5q135 0 242 -40l-50 -228q-76 32 -178 32q-121 0 -195.5 -76t-74.5 -196q0 -125 77.5 -198.5t198.5 -73.5q99 0 184 32zM616 1402h286l-250 -306h-212z" />
    <glyph glyph-name="Ccaron" unicode="&#x10c;" horiz-adv-x="1238" 
d="M1116 280l48 -240q-138 -62 -362 -62q-341 0 -535.5 185.5t-194.5 492.5q0 324 212 519t546 195q225 0 350 -62l-64 -244q-125 54 -272 54q-203 0 -324.5 -118t-121.5 -326q0 -203 119.5 -321.5t328.5 -118.5q151 0 270 46zM903 1450h-226l-208 252h212l110 -132l104 132
h214z" />
    <glyph glyph-name="ccaron" unicode="&#x10d;" horiz-adv-x="932" 
d="M844 252l38 -226q-113 -48 -286 -48q-242 0 -386 136.5t-144 365.5t155 374.5t419 145.5q135 0 242 -40l-50 -228q-76 32 -178 32q-121 0 -195.5 -76t-74.5 -196q0 -125 77.5 -198.5t198.5 -73.5q99 0 184 32zM708 1096h-206l-202 306h198l108 -176l106 176h198z" />
    <glyph glyph-name="Amacron" unicode="&#x100;" horiz-adv-x="1358" 
d="M864 352h-404l-100 -352h-322l426 1348h408l438 -1348h-336zM506 580h310q-122 395 -158 542h-4l-64 -256zM420 1658h524v-162h-524v162z" />
    <glyph glyph-name="amacron" unicode="&#x101;" horiz-adv-x="1082" 
d="M958 578v-340q0 -148 16 -238h-278l-18 98h-8q-101 -120 -286 -120q-144 0 -234 87.5t-90 212.5q0 182 152.5 279t437.5 97v12q0 122 -184 122q-150 0 -278 -74l-58 196q163 90 390 90q216 0 327 -109t111 -313zM660 362v100q-294 0 -294 -152q0 -55 33 -85.5t91 -30.5
q63 0 116.5 44t53.5 124zM288 1322h510v-158h-510v158z" />
    <glyph glyph-name="Abreve" unicode="&#x102;" horiz-adv-x="1358" 
d="M864 352h-404l-100 -352h-322l426 1348h408l438 -1348h-336zM506 580h310q-122 395 -158 542h-4l-64 -256zM396 1696h160q13 -108 122 -108q114 0 122 108h166q-11 -246 -286 -246q-133 0 -206.5 64t-77.5 182z" />
    <glyph glyph-name="abreve" unicode="&#x103;" horiz-adv-x="1082" 
d="M958 578v-340q0 -148 16 -238h-278l-18 98h-8q-101 -120 -286 -120q-144 0 -234 87.5t-90 212.5q0 182 152.5 279t437.5 97v12q0 122 -184 122q-150 0 -278 -74l-58 196q163 90 390 90q216 0 327 -109t111 -313zM660 362v100q-294 0 -294 -152q0 -55 33 -85.5t91 -30.5
q63 0 116.5 44t53.5 124zM280 1382h148q20 -122 114 -122q105 0 116 122h148q-2 -125 -71 -192.5t-193 -67.5t-192 67.5t-70 192.5z" />
    <glyph glyph-name="Aogonek" unicode="&#x104;" horiz-adv-x="1358" 
d="M864 352h-404l-100 -352h-322l426 1348h408l438 -1348q-86 -42 -138 -99.5t-52 -104.5q0 -34 22.5 -55t57.5 -21q46 0 102 22l20 -110q-69 -36 -172 -36q-87 0 -138.5 44.5t-51.5 121.5q0 67 57 136t135 102h-178zM506 580h310q-122 395 -158 542l-68 -256z" />
    <glyph glyph-name="aogonek" unicode="&#x105;" horiz-adv-x="1082" 
d="M958 578v-340q0 -148 16 -238q-86 -42 -138 -99.5t-52 -104.5q0 -33 23 -54.5t57 -21.5q46 0 100 22l22 -110q-69 -36 -172 -36q-87 0 -138.5 44.5t-51.5 121.5q0 68 56.5 136t135.5 102h-120l-18 98h-8q-101 -120 -286 -120q-144 0 -234 87.5t-90 212.5q0 182 152.5 279
t437.5 97v12q0 122 -184 122q-150 0 -278 -74l-58 196q163 90 390 90q216 0 327 -109t111 -313zM660 362v100q-294 0 -294 -152q0 -55 33 -85.5t91 -30.5q63 0 116.5 44t53.5 124z" />
    <glyph glyph-name="Dcaron" unicode="&#x10e;" horiz-adv-x="1440" 
d="M134 6v1324q200 30 428 30q431 0 618.5 -180.5t187.5 -471.5q0 -344 -213.5 -533t-658.5 -189q-206 0 -362 20zM444 1110v-878q26 -6 112 -6q231 0 357.5 121.5t126.5 348.5q0 208 -115.5 317t-332.5 109q-91 0 -148 -12zM773 1450h-226l-208 252h212l110 -132l104 132
h214z" />
    <glyph glyph-name="dcaron" unicode="&#x10f;" horiz-adv-x="1446" 
d="M792 1424h310v-1132q0 -160 8 -292h-276l-12 148h-4q-102 -170 -320 -170q-181 0 -305.5 140.5t-124.5 361.5q0 235 131.5 377.5t320.5 142.5q188 0 268 -112h4v536zM792 444v114q0 90 -53 148t-137 58q-102 0 -161 -75.5t-59 -198.5q0 -122 59 -194t159 -72
q72 0 132 52.5t60 167.5zM1344 1036l-146 -12q72 199 104 400l220 14q-76 -235 -178 -402z" />
    <glyph glyph-name="Dcroat" unicode="&#x110;" horiz-adv-x="1458" 
d="M4 564v244h146v526q200 30 428 30q312 0 479.5 -86t248 -231t80.5 -337q0 -347 -213.5 -538.5t-660.5 -191.5q-206 0 -362 20v564h-146zM742 808v-244h-282v-338q25 -6 114 -6q235 0 359.5 122.5t124.5 355.5q0 209 -115.5 318.5t-334.5 109.5q-91 0 -148 -12v-306h282z
" />
    <glyph glyph-name="dcroat" unicode="&#x111;" horiz-adv-x="1226" 
d="M1102 1114v-822q0 -160 8 -292h-276l-12 148h-4q-102 -170 -320 -170q-181 0 -305.5 140.5t-124.5 361.5q0 231 130.5 375.5t321.5 144.5q188 0 268 -112h4v226h-272v188h272v122h310v-122h100v-188h-100zM792 444v114q0 90 -53 148t-137 58q-102 0 -161 -75.5
t-59 -198.5q0 -122 59 -194t159 -72q74 0 133 54t59 166z" />
    <glyph glyph-name="Emacron" unicode="&#x112;" horiz-adv-x="1100" 
d="M962 818v-250h-518v-316h578v-252h-888v1348h860v-252h-550v-278h518zM290 1658h524v-162h-524v162z" />
    <glyph glyph-name="emacron" unicode="&#x113;" horiz-adv-x="1080" 
d="M1010 390h-650q8 -87 87.5 -135.5t198.5 -48.5q152 0 280 42l40 -206q-152 -64 -364 -64q-251 0 -393.5 134t-142.5 366q0 213 137 367.5t369 154.5q214 0 332 -138t118 -354q0 -71 -12 -118zM358 602h376q0 69 -40.5 131.5t-137.5 62.5q-80 0 -132.5 -53.5t-65.5 -140.5
zM316 1322h510v-158h-510v158z" />
    <glyph glyph-name="Edotaccent" unicode="&#x116;" horiz-adv-x="1100" 
d="M962 818v-250h-518v-316h578v-252h-888v1348h860v-252h-550v-278h518zM699 1594q0 -56 -39 -97t-95 -41q-59 0 -100.5 41t-41.5 97q0 58 41 98t101 40q56 0 95 -40t39 -98z" />
    <glyph glyph-name="edotaccent" unicode="&#x117;" horiz-adv-x="1080" 
d="M1010 390h-650q8 -87 87.5 -135.5t198.5 -48.5q152 0 280 42l40 -206q-152 -64 -364 -64q-251 0 -393.5 134t-142.5 366q0 213 137 367.5t369 154.5q214 0 332 -138t118 -354q0 -71 -12 -118zM358 602h376q0 69 -40.5 131.5t-137.5 62.5q-80 0 -132.5 -53.5t-65.5 -140.5
zM708 1228q0 -57 -38.5 -97.5t-95.5 -40.5q-59 0 -99.5 41t-40.5 97q0 58 41 98t101 40q56 0 94 -39.5t38 -98.5z" />
    <glyph glyph-name="Eogonek" unicode="&#x118;" horiz-adv-x="1100" 
d="M962 818v-250h-518v-316h578v-252q-86 -42 -138 -99.5t-52 -104.5q0 -34 22.5 -55t57.5 -21q46 0 102 22l20 -110q-69 -36 -172 -36q-87 0 -138.5 44.5t-51.5 121.5q0 67 57 136t135 102h-730v1348h860v-252h-550v-278h518z" />
    <glyph glyph-name="eogonek" unicode="&#x119;" horiz-adv-x="1080" 
d="M1010 390h-650q8 -87 87.5 -135.5t198.5 -48.5q152 0 280 42l40 -206q-35 -14 -83 -28.5t-97.5 -50t-81.5 -79.5t-32 -80q0 -33 23 -54.5t57 -21.5q46 0 100 22l22 -110q-69 -36 -172 -36q-87 0 -138.5 44.5t-51.5 121.5q0 115 140 210q-13 -2 -50 -2q-251 0 -393.5 134
t-142.5 366q0 213 137 367.5t369 154.5q214 0 332 -138t118 -354q0 -71 -12 -118zM358 602h376q0 69 -40.5 131.5t-137.5 62.5q-80 0 -132.5 -53.5t-65.5 -140.5z" />
    <glyph glyph-name="Ecaron" unicode="&#x11a;" horiz-adv-x="1100" 
d="M962 818v-250h-518v-316h578v-252h-888v1348h860v-252h-550v-278h518zM687 1450h-226l-208 252h212l110 -132l104 132h214z" />
    <glyph glyph-name="ecaron" unicode="&#x11b;" horiz-adv-x="1080" 
d="M1010 390h-650q8 -87 87.5 -135.5t198.5 -48.5q152 0 280 42l40 -206q-152 -64 -364 -64q-251 0 -393.5 134t-142.5 366q0 213 137 367.5t369 154.5q214 0 332 -138t118 -354q0 -71 -12 -118zM358 602h376q0 69 -40.5 131.5t-137.5 62.5q-80 0 -132.5 -53.5t-65.5 -140.5
zM666 1096h-206l-202 306h198l108 -176l106 176h198z" />
    <glyph glyph-name="Gcommaaccent" unicode="&#x122;" horiz-adv-x="1412" 
d="M1304 774v-710q-245 -78 -470 -78q-380 0 -571 187.5t-191 484.5q0 321 218.5 512.5t575.5 191.5q244 0 392 -68l-66 -244q-137 60 -332 60q-211 0 -336.5 -115.5t-125.5 -318.5q0 -201 122.5 -321.5t323.5 -120.5q114 0 160 20v280h-218v240h518zM706 -486l-146 -12
q72 199 104 400l220 14q-76 -235 -178 -402z" />
    <glyph glyph-name="gcommaaccent" unicode="&#x123;" horiz-adv-x="1202" 
d="M1076 688v-542q0 -286 -133 -426t-425 -140q-219 0 -364 78l62 234q137 -76 294 -76q123 0 192.5 66.5t69.5 191.5v64h-4q-97 -130 -274 -130q-185 0 -305.5 133t-120.5 343q0 226 132 371t324 145q190 0 278 -140h4l10 118h268q-8 -116 -8 -290zM766 444v130
q0 85 -49 139.5t-129 54.5q-89 0 -147.5 -75t-58.5 -201q0 -111 55 -184.5t151 -73.5q64 0 121 46.5t57 163.5zM620 1508l146 12q-72 -199 -104 -400l-220 -14q76 235 178 402z" />
    <glyph glyph-name="Imacron" unicode="&#x12a;" horiz-adv-x="578" 
d="M134 1348h310v-1348h-310v1348zM30 1658h524v-162h-524v162z" />
    <glyph glyph-name="imacron" unicode="&#x12b;" horiz-adv-x="560" 
d="M436 0h-310v978h310v-978zM26 1322h510v-158h-510v158z" />
    <glyph glyph-name="Iogonek" unicode="&#x12e;" horiz-adv-x="578" 
d="M134 1348h310v-1348q-86 -42 -138 -99.5t-52 -104.5q0 -34 22.5 -55t57.5 -21q46 0 102 22l20 -110q-69 -36 -172 -36q-87 0 -138.5 44.5t-51.5 121.5q0 67 57 136t135 102h-152v1348z" />
    <glyph glyph-name="iogonek" unicode="&#x12f;" horiz-adv-x="560" 
d="M454 1268q0 -70 -48 -116t-126 -46t-126 46t-48 116t48.5 116t125.5 46t125.5 -46t48.5 -116zM126 0v978h310v-978q-86 -42 -138 -99.5t-52 -104.5q0 -33 23 -54.5t57 -21.5q46 0 100 22l22 -110q-69 -36 -172 -36q-87 0 -138.5 44.5t-51.5 121.5q0 68 56.5 136
t135.5 102h-152z" />
    <glyph glyph-name="Idotaccent" unicode="&#x130;" horiz-adv-x="578" 
d="M134 1348h310v-1348h-310v1348zM429 1594q0 -56 -39 -97t-95 -41q-59 0 -100.5 41t-41.5 97q0 58 41 98t101 40q56 0 95 -40t39 -98z" />
    <glyph glyph-name="Kcommaaccent" unicode="&#x136;" horiz-adv-x="1264" 
d="M134 0v1348h306v-594l112 161l308 433h384l-462 -572l488 -776h-362l-348 584l-120 -144v-440h-306zM562 -466l-146 -12q72 199 104 400l220 14q-76 -235 -178 -402z" />
    <glyph glyph-name="kcommaaccent" unicode="&#x137;" horiz-adv-x="1116" 
d="M434 1424v-858h4q26 52 280 412h374l-364 -396l418 -582h-384l-248 402l-80 -98v-304h-310v1424h310zM488 -486l-146 -12q72 199 104 400l220 14q-76 -235 -178 -402z" />
    <glyph glyph-name="Lacute" unicode="&#x139;" horiz-adv-x="1052" 
d="M134 0v1348h310v-1088h558v-260h-868zM318 1702h324l-248 -252h-248z" />
    <glyph glyph-name="lacute" unicode="&#x13a;" horiz-adv-x="560" 
d="M126 0v1424h310v-1424h-310zM306 1762h324l-248 -252h-248z" />
    <glyph glyph-name="Lcommaaccent" unicode="&#x13b;" horiz-adv-x="1052" 
d="M134 0v1348h310v-1088h558v-260h-868zM456 -486l-146 -12q72 199 104 400l220 14q-76 -235 -178 -402z" />
    <glyph glyph-name="lcommaaccent" unicode="&#x13c;" horiz-adv-x="560" 
d="M126 0v1424h310v-1424h-310zM210 -486l-146 -12q72 199 104 400l220 14q-76 -235 -178 -402z" />
    <glyph glyph-name="Lcaron" unicode="&#x13d;" horiz-adv-x="1052" 
d="M134 0v1348h310v-1088h558v-260h-868zM736 1102l-146 -12q72 199 104 400l220 14q-76 -235 -178 -402z" />
    <glyph glyph-name="lcaron" unicode="&#x13e;" horiz-adv-x="780" 
d="M126 0v1424h310v-1424h-310zM678 1036l-146 -12q72 199 104 400l220 14q-76 -235 -178 -402z" />
    <glyph glyph-name="Nacute" unicode="&#x143;" horiz-adv-x="1422" 
d="M420 0h-286v1348h368l325 -551q93 -161 195 -409h4q-24 212 -24 556v404h286v-1348h-328q-343 595 -409 717.5t-137 286.5h-8q14 -255 14 -586v-418zM730 1702h324l-248 -252h-248z" />
    <glyph glyph-name="nacute" unicode="&#x144;" horiz-adv-x="1200" 
d="M126 0v664q0 145 -8 314h268l14 -138h8q109 160 310 160q165 0 262.5 -111.5t97.5 -314.5v-574h-310v534q0 218 -162 218q-66 0 -118 -50t-52 -142v-560h-310zM620 1402h286l-250 -306h-212z" />
    <glyph glyph-name="Ncommaaccent" unicode="&#x145;" horiz-adv-x="1422" 
d="M420 0h-286v1348h368l325 -551q93 -161 195 -409h4q-24 212 -24 556v404h286v-1348h-328q-343 595 -409 717.5t-137 286.5h-8q14 -255 14 -586v-418zM642 -466l-146 -12q72 199 104 400l220 14q-76 -235 -178 -402z" />
    <glyph glyph-name="ncommaaccent" unicode="&#x146;" horiz-adv-x="1200" 
d="M126 0v664q0 145 -8 314h268l14 -138h8q109 160 310 160q165 0 262.5 -111.5t97.5 -314.5v-574h-310v534q0 218 -162 218q-66 0 -118 -50t-52 -142v-560h-310zM530 -466l-146 -12q72 199 104 400l220 14q-76 -235 -178 -402z" />
    <glyph glyph-name="Ncaron" unicode="&#x147;" horiz-adv-x="1422" 
d="M420 0h-286v1348h368l325 -551q93 -161 195 -409h4q-24 212 -24 556v404h286v-1348h-328q-343 595 -409 717.5t-137 286.5h-8q14 -255 14 -586v-418zM825 1450h-226l-208 252h212l110 -132l104 132h214z" />
    <glyph glyph-name="ncaron" unicode="&#x148;" horiz-adv-x="1200" 
d="M126 0v664q0 145 -8 314h268l14 -138h8q109 160 310 160q165 0 262.5 -111.5t97.5 -314.5v-574h-310v534q0 218 -162 218q-66 0 -118 -50t-52 -142v-560h-310zM702 1096h-206l-202 306h198l108 -176l106 176h198z" />
    <glyph glyph-name="Omacron" unicode="&#x14c;" horiz-adv-x="1490" 
d="M1418 686q0 -321 -188.5 -514.5t-495.5 -193.5q-298 0 -480 192.5t-182 493.5q0 308 190 507t490 199q302 0 484 -192t182 -492zM398 672q0 -198 95 -324t249 -126q158 0 252 125t94 329q0 196 -94.5 323t-249.5 127q-156 0 -251 -127.5t-95 -326.5zM486 1658h524v-162
h-524v162z" />
    <glyph glyph-name="omacron" unicode="&#x14d;" horiz-adv-x="1186" 
d="M1120 500q0 -240 -151 -381t-379 -141q-230 0 -377 138.5t-147 365.5q0 233 148 375.5t392 142.5q228 0 371 -140t143 -360zM384 488q0 -130 56.5 -210t151.5 -80q93 0 149.5 79t56.5 213q0 128 -54 209t-150 81q-99 0 -154.5 -81.5t-55.5 -210.5zM340 1322h510v-158
h-510v158z" />
    <glyph glyph-name="Ohungarumlaut" unicode="&#x150;" horiz-adv-x="1490" 
d="M1418 686q0 -321 -188.5 -514.5t-495.5 -193.5q-298 0 -480 192.5t-182 493.5q0 308 190 507t490 199q302 0 484 -192t182 -492zM398 672q0 -198 95 -324t249 -126q158 0 252 125t94 329q0 196 -94.5 323t-249.5 127q-156 0 -251 -127.5t-95 -326.5zM591 1706h286
l-208 -238h-216zM959 1706h286l-208 -238h-216z" />
    <glyph glyph-name="ohungarumlaut" unicode="&#x151;" horiz-adv-x="1186" 
d="M1120 500q0 -240 -151 -381t-379 -141q-230 0 -377 138.5t-147 365.5q0 233 148 375.5t392 142.5q228 0 371 -140t143 -360zM384 488q0 -130 56.5 -210t151.5 -80q93 0 149.5 79t56.5 213q0 128 -54 209t-150 81q-99 0 -154.5 -81.5t-55.5 -210.5zM404 1402h244
l-194 -298h-174zM758 1402h244l-194 -298h-174z" />
    <glyph glyph-name="Racute" unicode="&#x154;" horiz-adv-x="1216" 
d="M134 0v1330q170 30 418 30q306 0 440 -101t134 -289q0 -112 -67.5 -202.5t-174.5 -127.5v-8q126 -47 182 -248q103 -362 112 -384h-316q-40 75 -96 314q-28 120 -76 168t-154 48h-96v-530h-306zM440 1122v-370h128q116 0 183 52.5t67 141.5t-60.5 137.5t-171.5 48.5
q-109 0 -146 -10zM626 1702h324l-248 -252h-248z" />
    <glyph glyph-name="racute" unicode="&#x155;" horiz-adv-x="780" 
d="M126 0v652q0 220 -8 326h266l10 -186h8q36 101 111.5 154.5t160.5 53.5q47 0 66 -6v-290q-39 10 -84 10q-86 0 -153 -48.5t-67 -171.5v-494h-310zM410 1402h286l-250 -306h-212z" />
    <glyph glyph-name="Rcommaaccent" unicode="&#x156;" horiz-adv-x="1216" 
d="M134 0v1330q170 30 418 30q306 0 440 -101t134 -289q0 -112 -67.5 -202.5t-174.5 -127.5v-8q126 -47 182 -248q103 -362 112 -384h-316q-40 75 -96 314q-28 120 -76 168t-154 48h-96v-530h-306zM440 1122v-370h128q116 0 183 52.5t67 141.5t-60.5 137.5t-171.5 48.5
q-109 0 -146 -10zM558 -466l-146 -12q72 199 104 400l220 14q-76 -235 -178 -402z" />
    <glyph glyph-name="rcommaaccent" unicode="&#x157;" horiz-adv-x="780" 
d="M126 0v652q0 220 -8 326h266l10 -186h8q36 101 111.5 154.5t160.5 53.5q47 0 66 -6v-290q-39 10 -84 10q-86 0 -153 -48.5t-67 -171.5v-494h-310zM226 -486l-146 -12q72 199 104 400l220 14q-76 -235 -178 -402z" />
    <glyph glyph-name="Rcaron" unicode="&#x158;" horiz-adv-x="1216" 
d="M134 0v1330q170 30 418 30q306 0 440 -101t134 -289q0 -112 -67.5 -202.5t-174.5 -127.5v-8q126 -47 182 -248q103 -362 112 -384h-316q-40 75 -96 314q-28 120 -76 168t-154 48h-96v-530h-306zM440 1122v-370h128q116 0 183 52.5t67 141.5t-60.5 137.5t-171.5 48.5
q-109 0 -146 -10zM711 1450h-226l-208 252h212l110 -132l104 132h214z" />
    <glyph glyph-name="rcaron" unicode="&#x159;" horiz-adv-x="780" 
d="M126 0v652q0 220 -8 326h266l10 -186h8q36 101 111.5 154.5t160.5 53.5q47 0 66 -6v-290q-39 10 -84 10q-86 0 -153 -48.5t-67 -171.5v-494h-310zM512 1096h-206l-202 306h198l108 -176l106 176h198z" />
    <glyph glyph-name="Sacute" unicode="&#x15a;" horiz-adv-x="1114" 
d="M84 64l64 254q173 -88 352 -88q103 0 160.5 39t57.5 107q0 61 -52 102t-180 84q-386 128 -386 402q0 177 142 291.5t378 114.5q206 0 360 -70l-70 -246q-141 66 -294 66q-94 0 -147 -36t-53 -94q0 -53 44.5 -90.5t213.5 -97.5q187 -66 273.5 -163.5t86.5 -242.5
q0 -186 -146 -302t-408 -116q-224 0 -396 86zM586 1702h324l-248 -252h-248z" />
    <glyph glyph-name="sacute" unicode="&#x15b;" horiz-adv-x="894" 
d="M68 48l56 220q54 -31 132.5 -52.5t139.5 -21.5q134 0 134 80q0 40 -32.5 62t-115.5 48q-288 89 -288 292q0 141 112.5 232.5t295.5 91.5q160 0 284 -58l-54 -212q-116 56 -220 56q-120 0 -120 -78q0 -35 36.5 -59t127.5 -53q140 -44 206 -116.5t66 -183.5
q0 -145 -114 -231.5t-318 -86.5q-188 0 -328 70zM528 1402h286l-250 -306h-212z" />
    <glyph glyph-name="Scommaaccent" unicode="&#x15e;" horiz-adv-x="1114" 
d="M84 64l64 254q173 -88 352 -88q103 0 160.5 39t57.5 107q0 61 -52 102t-180 84q-386 128 -386 402q0 177 142 291.5t378 114.5q206 0 360 -70l-70 -246q-141 66 -294 66q-94 0 -147 -36t-53 -94q0 -53 44.5 -90.5t213.5 -97.5q187 -66 273.5 -163.5t86.5 -242.5
q0 -186 -146 -302t-408 -116q-224 0 -396 86zM488 -486l-146 -12q72 199 104 400l220 14q-76 -235 -178 -402z" />
    <glyph glyph-name="scommaaccent" unicode="&#x15f;" horiz-adv-x="894" 
d="M68 48l56 220q54 -31 132.5 -52.5t139.5 -21.5q134 0 134 80q0 40 -32.5 62t-115.5 48q-288 89 -288 292q0 141 112.5 232.5t295.5 91.5q160 0 284 -58l-54 -212q-116 56 -220 56q-120 0 -120 -78q0 -35 36.5 -59t127.5 -53q140 -44 206 -116.5t66 -183.5
q0 -145 -114 -231.5t-318 -86.5q-188 0 -328 70zM378 -486l-146 -12q72 199 104 400l220 14q-76 -235 -178 -402z" />
    <glyph glyph-name="Tcommaaccent" unicode="&#x162;" horiz-adv-x="1132" 
d="M408 0v1090h-378v258h1072v-258h-384v-1090h-310zM496 -486l-146 -12q72 199 104 400l220 14q-76 -235 -178 -402z" />
    <glyph glyph-name="tcommaaccent" unicode="&#x163;" horiz-adv-x="746" 
d="M166 1162l302 82v-266h222v-228h-222v-344q0 -97 28.5 -136.5t93.5 -39.5q60 0 94 10l2 -234q-73 -28 -202 -28q-140 0 -229 83.5t-89 294.5v394h-132v228h132v184zM304 -486l-146 -12q72 199 104 400l220 14q-76 -235 -178 -402z" />
    <glyph glyph-name="Tcaron" unicode="&#x164;" horiz-adv-x="1132" 
d="M408 0v1090h-378v258h1072v-258h-384v-1090h-310zM679 1450h-226l-208 252h212l110 -132l104 132h214z" />
    <glyph glyph-name="tcaron" unicode="&#x165;" horiz-adv-x="746" 
d="M166 1162l302 82v-266h222v-228h-222v-344q0 -97 28.5 -136.5t93.5 -39.5q60 0 94 10l2 -234q-73 -28 -202 -28q-140 0 -229 83.5t-89 294.5v394h-132v228h132v184zM724 1094l-146 -12q72 199 104 400l220 14q-76 -235 -178 -402z" />
    <glyph glyph-name="Umacron" unicode="&#x16a;" horiz-adv-x="1406" 
d="M134 1348h310v-764q0 -176 66 -269t190 -93q262 0 262 362v764h310v-748q0 -305 -149 -463.5t-433 -158.5q-556 0 -556 626v744zM444 1658h524v-162h-524v162z" />
    <glyph glyph-name="umacron" unicode="&#x16b;" horiz-adv-x="1198" 
d="M1072 978v-662q0 -157 8 -316h-268l-14 142h-8q-104 -164 -314 -164q-168 0 -261 109.5t-93 316.5v574h310v-522q0 -230 160 -230q67 0 118.5 49t51.5 125v578h310zM346 1322h510v-158h-510v158z" />
    <glyph glyph-name="Uring" unicode="&#x16e;" horiz-adv-x="1406" 
d="M134 1348h310v-764q0 -176 66 -269t190 -93q262 0 262 362v764h310v-748q0 -305 -149 -463.5t-433 -158.5q-556 0 -556 626v744zM473 1568q0 86 64 142t170 56q107 0 168.5 -54.5t61.5 -143.5q0 -85 -62 -139.5t-168 -54.5q-104 0 -169 55t-65 139zM797 1568q0 40 -26 68
t-68 28q-39 0 -63.5 -28t-24.5 -68q0 -38 25 -65t63 -27q42 0 68 26t26 66z" />
    <glyph glyph-name="uring" unicode="&#x16f;" horiz-adv-x="1198" 
d="M1072 978v-662q0 -157 8 -316h-268l-14 142h-8q-104 -164 -314 -164q-168 0 -261 109.5t-93 316.5v574h310v-522q0 -230 160 -230q67 0 118.5 49t51.5 125v578h310zM368 1272q0 89 63.5 145.5t170.5 56.5t168.5 -55.5t61.5 -146.5q0 -85 -63.5 -140.5t-166.5 -55.5
q-105 0 -169.5 55.5t-64.5 140.5zM694 1274q0 42 -25.5 70t-66.5 28q-42 0 -67 -28.5t-25 -71.5q0 -38 25.5 -66t64.5 -28q42 0 68 27.5t26 68.5z" />
    <glyph glyph-name="Uhungarumlaut" unicode="&#x170;" horiz-adv-x="1406" 
d="M134 1348h310v-764q0 -176 66 -269t190 -93q262 0 262 362v764h310v-748q0 -305 -149 -463.5t-433 -158.5q-556 0 -556 626v744zM549 1706h286l-208 -238h-216zM917 1706h286l-208 -238h-216z" />
    <glyph glyph-name="uhungarumlaut" unicode="&#x171;" horiz-adv-x="1198" 
d="M1072 978v-662q0 -157 8 -316h-268l-14 142h-8q-104 -164 -314 -164q-168 0 -261 109.5t-93 316.5v574h310v-522q0 -230 160 -230q67 0 118.5 49t51.5 125v578h310zM410 1402h244l-194 -298h-174zM764 1402h244l-194 -298h-174z" />
    <glyph glyph-name="Uogonek" unicode="&#x172;" horiz-adv-x="1406" 
d="M134 1348h310v-764q0 -176 66 -269t190 -93q262 0 262 362v764h310v-748q0 -507 -400 -602q-80 -38 -134 -97t-54 -107q0 -34 22.5 -55t57.5 -21q46 0 102 22l20 -110q-69 -36 -172 -36q-87 0 -138.5 44.5t-51.5 121.5q0 59 43.5 119.5t112.5 98.5q-546 8 -546 626v744z
" />
    <glyph glyph-name="uogonek" unicode="&#x173;" horiz-adv-x="1198" 
d="M1072 978v-662q0 -157 8 -316q-86 -42 -138 -99.5t-52 -104.5q0 -34 23 -55t57 -21q46 0 100 22l22 -110q-69 -36 -172 -36q-87 0 -138.5 44.5t-51.5 121.5q0 68 56.5 136t135.5 102h-110l-14 142h-8q-104 -164 -314 -164q-168 0 -261 109.5t-93 316.5v574h310v-522
q0 -230 160 -230q67 0 118.5 49t51.5 125v578h310z" />
    <glyph glyph-name="Zacute" unicode="&#x179;" horiz-adv-x="1198" 
d="M50 0v166l668 920v6h-608v256h1014v-174l-654 -912v-6h666v-256h-1086zM618 1702h324l-248 -252h-248z" />
    <glyph glyph-name="zacute" unicode="&#x17a;" horiz-adv-x="964" 
d="M44 0v176l357 425.5l121 132.5h-444v244h826v-184l-367 -440.5t-103 -105.5v-4h486v-244h-876zM542 1402h286l-250 -306h-212z" />
    <glyph glyph-name="Zdotaccent" unicode="&#x17b;" horiz-adv-x="1198" 
d="M50 0v166l668 920v6h-608v256h1014v-174l-654 -912v-6h666v-256h-1086zM769 1594q0 -56 -39 -97t-95 -41q-59 0 -100.5 41t-41.5 97q0 58 41 98t101 40q56 0 95 -40t39 -98z" />
    <glyph glyph-name="zdotaccent" unicode="&#x17c;" horiz-adv-x="964" 
d="M44 0v176l357 425.5l121 132.5h-444v244h826v-184l-367 -440.5t-103 -105.5v-4h486v-244h-876zM654 1228q0 -57 -38.5 -97.5t-95.5 -40.5q-59 0 -99.5 41t-40.5 97q0 58 41 98t101 40q56 0 94 -39.5t38 -98.5z" />
    <glyph glyph-name="commaaccent" unicode="&#xf6c3;" 
d="M230 -486l-146 -12q72 199 104 400l220 14q-76 -235 -178 -402z" />
    <glyph glyph-name="UCacute" unicode="&#xf100;" 
d="M224 1702h324l-248 -252h-248z" />
    <glyph glyph-name="UCdieresis" unicode="&#xf101;" 
d="M230 1592q0 -56 -38 -96t-94 -40q-60 0 -101 40t-41 96q0 58 41 98t101 40q55 0 93.5 -40t38.5 -98zM644 1592q0 -57 -38.5 -96.5t-95.5 -39.5q-60 0 -99 39.5t-39 96.5q0 59 39.5 98.5t98.5 39.5q57 0 95.5 -40t38.5 -98z" />
    <glyph glyph-name="UCcircumflex" unicode="&#xf102;" 
d="M190 1702h220l210 -252h-214l-104 132l-106 -132h-216z" />
    <glyph glyph-name="UCtilde" unicode="&#xf103;" 
d="M156 1458h-142q0 254 156 254q56 0 132 -40q80 -40 90 -40q30 0 40.5 21.5t15.5 66.5h138q0 -151 -43.5 -199.5t-116.5 -48.5q-64 0 -132 38q-68 36 -90 36q-42 0 -48 -88z" />
    <glyph glyph-name="UCmacron" unicode="&#xf104;" 
d="M38 1658h524v-162h-524v162z" />
    <glyph glyph-name="UCbreve" unicode="&#xf105;" 
d="M16 1696h160q13 -108 122 -108q114 0 122 108h166q-11 -246 -286 -246q-133 0 -206.5 64t-77.5 182z" />
    <glyph glyph-name="UCdotaccent" unicode="&#xf106;" 
d="M438 1594q0 -56 -39 -97t-95 -41q-59 0 -100.5 41t-41.5 97q0 58 41 98t101 40q56 0 95 -40t39 -98z" />
    <glyph glyph-name="UCring" unicode="&#xf107;" 
d="M68 1568q0 86 64 142t170 56q107 0 168.5 -54.5t61.5 -143.5q0 -85 -62 -139.5t-168 -54.5q-104 0 -169 55t-65 139zM392 1568q0 40 -26 68t-68 28q-39 0 -63.5 -28t-24.5 -68q0 -38 25 -65t63 -27q42 0 68 26t26 66z" />
    <glyph glyph-name="UCcedilla" unicode="&#xf108;" 
d="M242 8h164l-54 -96q64 -8 105 -48.5t41 -95.5q0 -92 -69 -134t-177 -42q-94 0 -162 40l40 112q59 -32 110 -32q72 0 72 52q0 61 -158 72z" />
    <glyph glyph-name="UChungarumlaut" unicode="&#xf109;" 
d="M42 1706h286l-208 -238h-216zM410 1706h286l-208 -238h-216z" />
    <glyph glyph-name="UCogonek" unicode="&#xf110;" 
d="M308 0h152q-84 -42 -136 -101t-52 -105q0 -34 23 -55t57 -21q46 0 100 22l22 -110q-69 -36 -172 -36q-87 0 -138.5 44.5t-51.5 121.5q0 50 32 102.5t90.5 95t73.5 42.5z" />
    <glyph glyph-name="UCcaron" unicode="&#xf111;" 
d="M414 1450h-226l-208 252h212l110 -132l104 132h214z" />
    <glyph glyph-name="UCgrave" unicode="&#xf112;" horiz-adv-x="601" 
d="M52 1704h322l176 -250h-248z" />
    </font>
</defs>
</svg>
